<svg xmlns="http://www.w3.org/2000/svg" width="600" height="130.28" viewBox="0 0 600 130.28">
  <g id="creativecircle-white" transform="translate(-8.556 -129.6)">
    <g id="Group_123" data-name="Group 123" transform="translate(288.457 234.414)">
      <path id="Path_233" data-name="Path 233" d="M206.6,214.275a10.166,10.166,0,0,1-3.305.363H199V201.147h4.835a11.005,11.005,0,0,1,1.947.153,5.5,5.5,0,0,1,3.25,2.025,7.626,7.626,0,0,1,1.393,4.683C210.424,210.681,209.392,213.375,206.6,214.275Zm-.153-9.975a3.593,3.593,0,0,0-1.414-.726,7.4,7.4,0,0,0-2.177-.151H201.52v8.942h.669a19.74,19.74,0,0,0,2.77-.115,3.116,3.116,0,0,0,1.987-1.051,5.866,5.866,0,0,0,.8-3.211A4.6,4.6,0,0,0,206.45,204.3Z" transform="translate(-198.998 -200.805)" fill="#fff"/>
      <path id="Path_234" data-name="Path 234" d="M209.879,214.638V201.147h2.484v13.491Z" transform="translate(-193.887 -200.805)" fill="#fff"/>
      <path id="Path_235" data-name="Path 235" d="M224.713,214.747l-.019-1.148a5.054,5.054,0,0,1-3.707,1.492,6.044,6.044,0,0,1-4.32-1.7,7.258,7.258,0,0,1-2-5.254,7.962,7.962,0,0,1,1.586-4.874,6.288,6.288,0,0,1,4.947-2.349,6.447,6.447,0,0,1,2.218.4,5.974,5.974,0,0,1,3.458,3.574l-2.407.954a3.458,3.458,0,0,0-3.286-2.656,3.388,3.388,0,0,0-2.428.976,5.277,5.277,0,0,0-1.336,3.9,4.987,4.987,0,0,0,1.548,3.879,3.39,3.39,0,0,0,2.274.764,3.134,3.134,0,0,0,3.038-1.912,4.155,4.155,0,0,0,.285-1.2H221.2v-2.218h5.676v7.377Z" transform="translate(-191.639 -200.914)" fill="#fff"/>
      <path id="Path_236" data-name="Path 236" d="M226.415,214.638V201.147H228.9v13.491Z" transform="translate(-186.119 -200.805)" fill="#fff"/>
      <path id="Path_237" data-name="Path 237" d="M237.208,203.422v11.216h-2.522V203.422h-3.668v-2.275h9.916v2.275Z" transform="translate(-183.957 -200.805)" fill="#fff"/>
      <path id="Path_238" data-name="Path 238" d="M248.238,214.638,247.455,212H242.39l-.783,2.637H238.9l4.566-13.491h2.866l4.6,13.491Zm-3.305-11.064-1.872,6.211h3.726Z" transform="translate(-180.257 -200.805)" fill="#fff"/>
      <path id="Path_239" data-name="Path 239" d="M249.841,214.638V201.147h2.54v11.2h5.351v2.294Z" transform="translate(-175.115 -200.805)" fill="#fff"/>
      <path id="Path_240" data-name="Path 240" d="M264.444,208.338V211.2h-1.72v-2.857h-2.7v-1.415h2.7V204.1h1.72v2.819h2.7v1.415Z" transform="translate(-170.331 -199.415)" fill="#fff"/>
      <path id="Path_241" data-name="Path 241" d="M279.825,212.8a5.911,5.911,0,0,1-4.815,2.294,6.541,6.541,0,0,1-2.715-.575c-1.529-.726-3.591-2.56-3.591-6.554a7.553,7.553,0,0,1,1.242-4.431,6.043,6.043,0,0,1,5.159-2.618,5.31,5.31,0,0,1,4.547,2.14,7.72,7.72,0,0,1,.936,2.025l-2.5.648a3.125,3.125,0,0,0-.344-1.07,2.827,2.827,0,0,0-2.6-1.432,3.422,3.422,0,0,0-1.567.363c-.994.5-2.141,1.8-2.141,4.317a6.253,6.253,0,0,0,.8,3.191,3.531,3.531,0,0,0,2.942,1.606,3.019,3.019,0,0,0,2.485-1.223,5.924,5.924,0,0,0,.535-.823,6.673,6.673,0,0,0,.248-.669l2.388.994A7.329,7.329,0,0,1,279.825,212.8Z" transform="translate(-166.253 -200.914)" fill="#fff"/>
      <path id="Path_242" data-name="Path 242" d="M287.214,214.638l-2.657-5.007h-2.274v5.007h-2.5V201.147H285.3a4.436,4.436,0,0,1,3.63,1.643,4.351,4.351,0,0,1,.82,2.637,4.675,4.675,0,0,1-.248,1.509,3.722,3.722,0,0,1-2.406,2.2l3,5.5Zm-.86-10.91a3.441,3.441,0,0,0-2.025-.4h-2.046v4.2h.9a7.055,7.055,0,0,0,3-.326,1.925,1.925,0,0,0,1.013-1.8A1.905,1.905,0,0,0,286.354,203.728Z" transform="translate(-161.051 -200.805)" fill="#fff"/>
      <path id="Path_243" data-name="Path 243" d="M289.7,214.638V201.147h9.593V203.4h-7.108v3.172H298.7v2.18h-6.515v3.611h7.585v2.274Z" transform="translate(-156.392 -200.805)" fill="#fff"/>
      <path id="Path_244" data-name="Path 244" d="M307.793,214.638,307.008,212h-5.063l-.783,2.637h-2.713l4.568-13.491h2.865l4.606,13.491Zm-3.305-11.064-1.874,6.211h3.726Z" transform="translate(-152.282 -200.805)" fill="#fff"/>
      <path id="Path_245" data-name="Path 245" d="M313.986,203.422v11.216h-2.522V203.422h-3.668v-2.275h9.916v2.275Z" transform="translate(-147.891 -200.805)" fill="#fff"/>
      <path id="Path_246" data-name="Path 246" d="M317.415,214.638V201.147H319.9v13.491Z" transform="translate(-143.372 -200.805)" fill="#fff"/>
      <path id="Path_247" data-name="Path 247" d="M329.211,214.638h-3.4l-3.973-13.491h2.656l3.017,10.642,2.942-10.642h2.6Z" transform="translate(-141.295 -200.805)" fill="#fff"/>
      <path id="Path_248" data-name="Path 248" d="M332.156,214.638V201.147h9.593V203.4h-7.108v3.172h6.515v2.18h-6.515v3.611h7.585v2.274Z" transform="translate(-136.448 -200.805)" fill="#fff"/>
      <path id="Path_249" data-name="Path 249" d="M356.1,213.7a6.96,6.96,0,0,1-4.414,1.395,7.165,7.165,0,0,1-5.254-2.006,4.929,4.929,0,0,1-.651-.88l2.122-1.471a4.584,4.584,0,0,0,4.183,2.027,4.694,4.694,0,0,0,.995-.1c.285-.057,1.6-.42,1.6-1.683a1.373,1.373,0,0,0-.248-.8c-.46-.611-1.683-.783-2.352-.935l-1.6-.365a8.2,8.2,0,0,1-2.044-.629,3.388,3.388,0,0,1-1.931-3.135,4.052,4.052,0,0,1,.516-1.987c.611-1.032,2.084-2.215,4.815-2.215a6.386,6.386,0,0,1,5.445,2.731l-2.083,1.549a3.915,3.915,0,0,0-3.5-2.008c-.134,0-1.836-.018-2.388,1.033a1.188,1.188,0,0,0-.153.611,1.135,1.135,0,0,0,.171.611c.326.554,1.071.726,2.312.992l1.4.306a6.357,6.357,0,0,1,3.592,1.72,3.066,3.066,0,0,1,.782,2.274A3.611,3.611,0,0,1,356.1,213.7Z" transform="translate(-130.048 -200.914)" fill="#fff"/>
      <path id="Path_250" data-name="Path 250" d="M362.19,203.422v11.216h-2.522V203.422H356v-2.275h9.916v2.275Z" transform="translate(-125.247 -200.805)" fill="#fff"/>
      <path id="Path_251" data-name="Path 251" d="M373.22,214.638,372.437,212h-5.063l-.783,2.637h-2.713l4.566-13.491h2.866l4.6,13.491Zm-3.305-11.064-1.872,6.211h3.726Z" transform="translate(-121.547 -200.805)" fill="#fff"/>
      <path id="Path_252" data-name="Path 252" d="M377.313,203.4v3.363h5.636v2.161h-5.636v5.713h-2.5V201.147h8.923V203.4Z" transform="translate(-116.411 -200.805)" fill="#fff"/>
      <path id="Path_253" data-name="Path 253" d="M386.179,203.4v3.363h5.636v2.161h-5.636v5.713h-2.5V201.147H392.6V203.4Z" transform="translate(-112.246 -200.805)" fill="#fff"/>
      <path id="Path_254" data-name="Path 254" d="M392.528,214.638V201.147h2.485v13.491Z" transform="translate(-108.088 -200.805)" fill="#fff"/>
      <path id="Path_255" data-name="Path 255" d="M406.127,214.638l-5.905-9.459.154,9.459h-2.465V201.147h2.274l5.98,9.517-.306-9.517h2.484v13.491Z" transform="translate(-105.559 -200.805)" fill="#fff"/>
      <path id="Path_256" data-name="Path 256" d="M418.063,214.747l-.021-1.148a5.049,5.049,0,0,1-3.707,1.492,6.039,6.039,0,0,1-4.318-1.7,7.251,7.251,0,0,1-2.006-5.254,7.962,7.962,0,0,1,1.586-4.874,6.292,6.292,0,0,1,4.949-2.349,6.44,6.44,0,0,1,2.216.4,5.97,5.97,0,0,1,3.458,3.574l-2.406.954a3.462,3.462,0,0,0-3.288-2.656,3.383,3.383,0,0,0-2.427.976,5.276,5.276,0,0,0-1.338,3.9,4.985,4.985,0,0,0,1.549,3.879,3.386,3.386,0,0,0,2.272.764,3.136,3.136,0,0,0,3.039-1.912,4.257,4.257,0,0,0,.285-1.2h-3.363v-2.218h5.675v7.377Z" transform="translate(-100.815 -200.914)" fill="#fff"/>
    </g>
    <g id="Group_125" data-name="Group 125" transform="translate(8.556 129.6)">
      <g id="Group_124" data-name="Group 124" transform="translate(147.859 28.753)">
        <path id="Path_257" data-name="Path 257" d="M327.911,178.762a15.548,15.548,0,0,0-12.208-5.791,15.694,15.694,0,1,0,0,31.388,16.115,16.115,0,0,0,10.578-4.073,5.809,5.809,0,0,1,7.776-.359A21.52,21.52,0,1,1,315.7,167.186a21.4,21.4,0,0,1,19.536,12.477A5.907,5.907,0,0,1,327.911,178.762Zm44.426-4.521a9.457,9.457,0,0,0-4.793-1.27,9.774,9.774,0,0,0-9.778,9.678v21.98a5.546,5.546,0,0,1-5.6,5.514h-.181V182.649a15.537,15.537,0,0,1,15.562-15.463,15.316,15.316,0,0,1,12.12,5.878A5.8,5.8,0,0,1,372.337,174.241Zm-30.431-12.875a3.129,3.129,0,0,0,3.164-3.076,3.2,3.2,0,0,0-3.164-3.16,3.127,3.127,0,0,0-3.078,3.16A3.055,3.055,0,0,0,341.906,161.366Zm-2.813,5.82h-.075v37.352a5.652,5.652,0,0,0,5.7,5.606h.178V172.8A5.733,5.733,0,0,0,339.093,167.186Zm87.6,42.958a5.656,5.656,0,0,1-5.7-5.606V149.821h.188a5.65,5.65,0,0,1,5.6,5.7v54.626Zm41.963-18.538H436.1a16.317,16.317,0,0,0,16.189,12.753,17.335,17.335,0,0,0,11.123-4.073,6.157,6.157,0,0,1,7.962-.448,22.738,22.738,0,0,1-19.085,10.306c-12.3,0-22.253-9.583-22.253-21.43,0-11.94,9.952-21.527,22.253-21.527,11.4,0,20.989,8.228,22.067,18.9C474.724,189.251,471.73,191.516,468.66,191.606Zm-16.37-18.635A16.3,16.3,0,0,0,436.1,185.817h31.106a.953.953,0,0,0,1-1A16.33,16.33,0,0,0,452.29,172.971Zm-42.427,5.791a15.547,15.547,0,0,0-12.211-5.791,15.694,15.694,0,1,0,0,31.388,16.114,16.114,0,0,0,10.585-4.073,5.8,5.8,0,0,1,7.769-.359,21.517,21.517,0,1,1-18.354-32.742,21.387,21.387,0,0,1,19.536,12.477A5.9,5.9,0,0,1,409.863,178.762Zm60.859-13.735-.9-1.784h-.8v1.784h-.644V160.79h1.643a1.212,1.212,0,0,1,1.315,1.238,1.113,1.113,0,0,1-.844,1.126l.976,1.874Zm-.745-3.66h-.952v1.327h.952a.666.666,0,1,0,0-1.327Zm-3.8,1.54a3.559,3.559,0,0,1,3.561-3.557h0a3.561,3.561,0,0,1,3.56,3.557h0a3.564,3.564,0,0,1-3.56,3.56h0a3.561,3.561,0,0,1-3.561-3.56Zm.6,0a2.971,2.971,0,0,0,2.964,2.966h0a2.971,2.971,0,0,0,2.962-2.966h0a2.968,2.968,0,0,0-2.962-2.963h0a2.969,2.969,0,0,0-2.964,2.963Z" transform="translate(-22.247 -148.854)" fill="#fff"/>
        <path id="Path_258" data-name="Path 258" d="M142.893,179.071a15.555,15.555,0,0,0-12.212-5.791,15.694,15.694,0,1,0,0,31.388A16.093,16.093,0,0,0,141.26,200.6a5.808,5.808,0,0,1,7.775-.359A21.518,21.518,0,1,1,130.681,167.5a21.383,21.383,0,0,1,19.534,12.477A5.9,5.9,0,0,1,142.893,179.071Zm31.47-4.521a9.5,9.5,0,0,0-4.8-1.27,9.768,9.768,0,0,0-9.771,9.678v21.98a5.55,5.55,0,0,1-5.6,5.514H154V182.958A15.538,15.538,0,0,1,169.562,167.5a15.323,15.323,0,0,1,12.125,5.878A5.8,5.8,0,0,1,174.363,174.55ZM216.5,191.915H183.937a16.331,16.331,0,0,0,16.2,12.753,17.346,17.346,0,0,0,11.117-4.073,6.148,6.148,0,0,1,7.954-.448,22.723,22.723,0,0,1-19.071,10.306c-12.309,0-22.262-9.583-22.262-21.43,0-11.94,9.953-21.527,22.262-21.527,11.385,0,20.978,8.228,22.067,18.9C222.553,189.56,219.574,191.825,216.5,191.915ZM200.137,173.28a16.312,16.312,0,0,0-16.2,12.846h31.115a.956.956,0,0,0,1-1A16.342,16.342,0,0,0,200.137,173.28Zm68.7,37.173a5.74,5.74,0,0,1-5.8-5.606V189.022c0-9.774-6.33-15.742-16.455-15.742a15.694,15.694,0,1,0,0,31.388,16.875,16.875,0,0,0,12.393-5.334c.178.266.363.539.544.813a5.817,5.817,0,0,1-2.36,7.869,23.294,23.294,0,0,1-10.576,2.437,21.479,21.479,0,1,1,0-42.958c13.3,0,22.255,8.592,22.255,21.527Zm103.319-18.538H339.6a16.32,16.32,0,0,0,16.191,12.753,17.37,17.37,0,0,0,11.13-4.073,6.141,6.141,0,0,1,7.95-.448,22.742,22.742,0,0,1-19.08,10.306c-12.3,0-22.248-9.583-22.248-21.43,0-11.94,9.95-21.527,22.248-21.527,11.4,0,20.982,8.228,22.073,18.9C378.22,189.56,375.229,191.825,372.157,191.915Zm-16.37-18.635A16.3,16.3,0,0,0,339.6,186.126H370.71a.947.947,0,0,0,1-1A16.338,16.338,0,0,0,355.787,173.28ZM335.2,167.766a5.846,5.846,0,0,0-7.383,3.529l-7.934,23.159h.009l-3.207,9.309v.182c-.085.087-.085.269-.182.359,0-.09-.082-.272-.082-.359s0-.09-.094-.182l-11.123-32.468a5.782,5.782,0,0,0-7.324-3.529L310.9,205.66c0-.084-.087-.084-.087-.178.9,3.075,3.166,4.971,5.691,4.971,2.624,0,4.885-1.9,5.706-4.971v.178l3.817-11.207h.012Zm-72.392-.27v.178a5.711,5.711,0,0,0,5.7,5.607h7.415v37.173h.09a5.651,5.651,0,0,0,5.7-5.606V149.163h-.184a5.617,5.617,0,0,0-5.6,5.517V167.5Zm26.067,0h-.09v37.352a5.649,5.649,0,0,0,5.689,5.606h.188V173.105A5.734,5.734,0,0,0,288.879,167.5Zm2.8-5.82a3.129,3.129,0,0,0,3.163-3.076,3.2,3.2,0,0,0-3.163-3.16,3.124,3.124,0,0,0-3.075,3.16A3.052,3.052,0,0,0,291.683,161.675Z" transform="translate(-109.158 -149.163)" fill="#fff"/>
      </g>
      <path id="Path_259" data-name="Path 259" d="M133.621,163.412c-10.491-17.389-26.768-29.342-46.973-32.886-20.766-3.643-42.377,3.68-57.474,18.134-16.2,15.5-23.118,38.829-19.812,60.758,2.26,14.99,8.307,30.011,19.759,40.27,1.878,1.68,8.041,7.491,10.259,5.948,1.035-.719-2.291-5.134-2.8-5.651A139.375,139.375,0,0,1,25.549,237.2c-10.191-13.216-13.173-28.11-10.876-44.447,2.856-20.272,13.58-37.545,31.353-48,18.658-10.983,41.913-11.323,61.216-1.881,11.391,5.573,21.532,14.971,26.685,26.649a61.706,61.706,0,0,1,4.5,32,59.867,59.867,0,0,1-36.81,48c-20.842,8.472-45.359,3.366-61.54-12.053-17.713-16.879-17.822-45.324-5.4-65.211,11.245-18.009,33.038-26.8,53.688-23.243a52.35,52.35,0,0,1,15.156,5.331c1.377.716,5.2,3.886,5.237.971.049-3.557-8.358-7.931-10.359-8.854a54.256,54.256,0,0,0-16.808-4.439c-17.162-1.895-34.327,5.2-45.9,17.784-12.4,13.479-16.8,32.693-13.142,50.4,2.781,13.47,11.079,26.682,21.423,35.618,14.1,12.192,33.6,16.491,51.663,12.753,20.538-5.135,36.553-18.873,44.128-38.792C146.855,201.109,143.8,180.28,133.621,163.412Z" transform="translate(-8.556 -129.6)" fill="#fff"/>
    </g>
  </g>
</svg>
