<svg xmlns="http://www.w3.org/2000/svg" width="600" height="130.28" viewBox="0 0 600 130.28">
  <g id="creativecircle-color" transform="translate(-8.556 -8.312)">
    <g id="Group_95" data-name="Group 95" transform="translate(288.457 113.124)">
      <path id="Path_102" data-name="Path 102" d="M206.6,92.985a10.127,10.127,0,0,1-3.305.364H199V79.859h4.835a11.008,11.008,0,0,1,1.947.153,5.5,5.5,0,0,1,3.25,2.025,7.622,7.622,0,0,1,1.393,4.683C210.424,89.393,209.392,92.087,206.6,92.985Zm-.153-9.974a3.573,3.573,0,0,0-1.414-.726,7.4,7.4,0,0,0-2.177-.151H201.52v8.942h.669a19.739,19.739,0,0,0,2.77-.115,3.116,3.116,0,0,0,1.987-1.051,5.866,5.866,0,0,0,.8-3.211A4.6,4.6,0,0,0,206.45,83.012Z" transform="translate(-198.998 -79.515)" fill="#818a90"/>
      <path id="Path_103" data-name="Path 103" d="M209.879,93.35V79.859h2.484V93.35Z" transform="translate(-193.887 -79.515)" fill="#818a90"/>
      <path id="Path_104" data-name="Path 104" d="M224.713,93.46l-.019-1.148a5.054,5.054,0,0,1-3.707,1.492,6.044,6.044,0,0,1-4.32-1.7,7.258,7.258,0,0,1-2-5.254,7.962,7.962,0,0,1,1.586-4.874,6.288,6.288,0,0,1,4.947-2.35,6.46,6.46,0,0,1,2.218.4,5.974,5.974,0,0,1,3.458,3.574l-2.407.954a3.458,3.458,0,0,0-3.286-2.656,3.392,3.392,0,0,0-2.428.974,5.281,5.281,0,0,0-1.336,3.9,4.983,4.983,0,0,0,1.548,3.877,3.384,3.384,0,0,0,2.274.766,3.134,3.134,0,0,0,3.038-1.912,4.155,4.155,0,0,0,.285-1.2H221.2V86.083h5.676V93.46Z" transform="translate(-191.639 -79.625)" fill="#818a90"/>
      <path id="Path_105" data-name="Path 105" d="M226.415,93.35V79.859H228.9V93.35Z" transform="translate(-186.119 -79.515)" fill="#818a90"/>
      <path id="Path_106" data-name="Path 106" d="M237.208,82.134V93.35h-2.522V82.134h-3.668V79.859h9.916v2.275Z" transform="translate(-183.957 -79.515)" fill="#818a90"/>
      <path id="Path_107" data-name="Path 107" d="M248.238,93.35l-.783-2.637H242.39l-.783,2.637H238.9l4.566-13.491h2.866l4.6,13.491Zm-3.305-11.064L243.06,88.5h3.726Z" transform="translate(-180.257 -79.515)" fill="#818a90"/>
      <path id="Path_108" data-name="Path 108" d="M249.841,93.35V79.859h2.54v11.2h5.351V93.35Z" transform="translate(-175.115 -79.515)" fill="#818a90"/>
      <path id="Path_109" data-name="Path 109" d="M264.444,87.05v2.857h-1.72V87.05h-2.7V85.635h2.7V82.816h1.72v2.819h2.7V87.05Z" transform="translate(-170.331 -78.126)" fill="#818a90"/>
      <path id="Path_110" data-name="Path 110" d="M279.825,91.509A5.911,5.911,0,0,1,275.01,93.8a6.541,6.541,0,0,1-2.715-.575c-1.529-.726-3.591-2.56-3.591-6.554a7.554,7.554,0,0,1,1.242-4.431,6.044,6.044,0,0,1,5.159-2.619,5.31,5.31,0,0,1,4.547,2.141,7.732,7.732,0,0,1,.936,2.024l-2.5.65a3.125,3.125,0,0,0-.344-1.07,2.826,2.826,0,0,0-2.6-1.432,3.422,3.422,0,0,0-1.567.363c-.994.5-2.141,1.795-2.141,4.317a6.253,6.253,0,0,0,.8,3.191,3.531,3.531,0,0,0,2.942,1.606,3.019,3.019,0,0,0,2.485-1.223,5.926,5.926,0,0,0,.535-.823,6.673,6.673,0,0,0,.248-.669l2.388.994A7.329,7.329,0,0,1,279.825,91.509Z" transform="translate(-166.253 -79.625)" fill="#818a90"/>
      <path id="Path_111" data-name="Path 111" d="M287.214,93.35l-2.657-5.007h-2.274V93.35h-2.5V79.859H285.3a4.436,4.436,0,0,1,3.63,1.643,4.352,4.352,0,0,1,.82,2.637,4.675,4.675,0,0,1-.248,1.509,3.718,3.718,0,0,1-2.406,2.2l3,5.5Zm-.86-10.91a3.441,3.441,0,0,0-2.025-.4h-2.046v4.2h.9a7.055,7.055,0,0,0,3-.326,1.927,1.927,0,0,0,1.013-1.8A1.905,1.905,0,0,0,286.354,82.44Z" transform="translate(-161.051 -79.515)" fill="#818a90"/>
      <path id="Path_112" data-name="Path 112" d="M289.7,93.35V79.859h9.593v2.255h-7.108v3.172H298.7v2.18h-6.515v3.611h7.585V93.35Z" transform="translate(-156.392 -79.515)" fill="#818a90"/>
      <path id="Path_113" data-name="Path 113" d="M307.793,93.35l-.785-2.637h-5.063l-.783,2.637h-2.713l4.568-13.491h2.865l4.606,13.491Zm-3.305-11.064L302.613,88.5h3.726Z" transform="translate(-152.282 -79.515)" fill="#818a90"/>
      <path id="Path_114" data-name="Path 114" d="M313.986,82.134V93.35h-2.522V82.134h-3.668V79.859h9.916v2.275Z" transform="translate(-147.891 -79.515)" fill="#818a90"/>
      <path id="Path_115" data-name="Path 115" d="M317.415,93.35V79.859H319.9V93.35Z" transform="translate(-143.372 -79.515)" fill="#818a90"/>
      <path id="Path_116" data-name="Path 116" d="M329.211,93.35h-3.4l-3.973-13.491h2.656L327.509,90.5l2.942-10.642h2.6Z" transform="translate(-141.295 -79.515)" fill="#818a90"/>
      <path id="Path_117" data-name="Path 117" d="M332.156,93.35V79.859h9.593v2.255h-7.108v3.172h6.515v2.18h-6.515v3.611h7.585V93.35Z" transform="translate(-136.448 -79.515)" fill="#818a90"/>
      <path id="Path_118" data-name="Path 118" d="M356.1,92.409a6.96,6.96,0,0,1-4.414,1.395,7.165,7.165,0,0,1-5.254-2.006,4.93,4.93,0,0,1-.651-.88l2.122-1.471a4.584,4.584,0,0,0,4.183,2.027,4.693,4.693,0,0,0,.995-.1c.285-.057,1.6-.422,1.6-1.683a1.373,1.373,0,0,0-.248-.8c-.46-.611-1.683-.783-2.352-.936l-1.6-.363a8.2,8.2,0,0,1-2.044-.629,3.388,3.388,0,0,1-1.931-3.135,4.052,4.052,0,0,1,.516-1.987c.611-1.032,2.084-2.216,4.815-2.216a6.389,6.389,0,0,1,5.445,2.732L355.2,83.906a3.912,3.912,0,0,0-3.5-2.008c-.134,0-1.836-.018-2.388,1.032a1.2,1.2,0,0,0-.153.611,1.137,1.137,0,0,0,.171.613c.326.553,1.071.726,2.312.992l1.4.306a6.357,6.357,0,0,1,3.592,1.72,3.066,3.066,0,0,1,.782,2.274A3.612,3.612,0,0,1,356.1,92.409Z" transform="translate(-130.048 -79.625)" fill="#818a90"/>
      <path id="Path_119" data-name="Path 119" d="M362.19,82.134V93.35h-2.522V82.134H356V79.859h9.916v2.275Z" transform="translate(-125.247 -79.515)" fill="#818a90"/>
      <path id="Path_120" data-name="Path 120" d="M373.22,93.35l-.783-2.637h-5.063l-.783,2.637h-2.713l4.566-13.491h2.866l4.6,13.491Zm-3.305-11.064L368.042,88.5h3.726Z" transform="translate(-121.547 -79.515)" fill="#818a90"/>
      <path id="Path_121" data-name="Path 121" d="M377.313,82.114v3.363h5.636v2.161h-5.636V93.35h-2.5V79.859h8.923v2.255Z" transform="translate(-116.411 -79.515)" fill="#818a90"/>
      <path id="Path_122" data-name="Path 122" d="M386.179,82.114v3.363h5.636v2.161h-5.636V93.35h-2.5V79.859H392.6v2.255Z" transform="translate(-112.246 -79.515)" fill="#818a90"/>
      <path id="Path_123" data-name="Path 123" d="M392.528,93.35V79.859h2.485V93.35Z" transform="translate(-108.088 -79.515)" fill="#818a90"/>
      <path id="Path_124" data-name="Path 124" d="M406.127,93.35l-5.905-9.459.154,9.459h-2.465V79.859h2.274l5.98,9.515-.306-9.515h2.484V93.35Z" transform="translate(-105.559 -79.515)" fill="#818a90"/>
      <path id="Path_125" data-name="Path 125" d="M418.063,93.46l-.021-1.148a5.049,5.049,0,0,1-3.707,1.492,6.039,6.039,0,0,1-4.318-1.7,7.251,7.251,0,0,1-2.006-5.254,7.962,7.962,0,0,1,1.586-4.874,6.292,6.292,0,0,1,4.949-2.35,6.453,6.453,0,0,1,2.216.4A5.97,5.97,0,0,1,420.22,83.6l-2.406.954a3.462,3.462,0,0,0-3.288-2.656,3.387,3.387,0,0,0-2.427.974,5.28,5.28,0,0,0-1.338,3.9,4.98,4.98,0,0,0,1.549,3.877,3.38,3.38,0,0,0,2.272.766,3.136,3.136,0,0,0,3.039-1.912,4.257,4.257,0,0,0,.285-1.2h-3.363V86.083h5.675V93.46Z" transform="translate(-100.815 -79.625)" fill="#818a90"/>
    </g>
    <g id="Group_97" data-name="Group 97" transform="translate(8.556 8.312)">
      <g id="Group_96" data-name="Group 96" transform="translate(147.859 28.753)">
        <path id="Path_126" data-name="Path 126" d="M327.911,57.474A15.548,15.548,0,0,0,315.7,51.683a15.694,15.694,0,1,0,0,31.388A16.115,16.115,0,0,0,326.281,79a5.809,5.809,0,0,1,7.776-.359A21.52,21.52,0,1,1,315.7,45.9a21.4,21.4,0,0,1,19.536,12.477A5.907,5.907,0,0,1,327.911,57.474Zm44.426-4.521a9.457,9.457,0,0,0-4.793-1.27,9.774,9.774,0,0,0-9.778,9.678v21.98a5.546,5.546,0,0,1-5.6,5.514h-.181V61.361A15.537,15.537,0,0,1,367.544,45.9a15.316,15.316,0,0,1,12.12,5.878A5.8,5.8,0,0,1,372.337,52.953ZM341.906,40.078A3.128,3.128,0,0,0,345.07,37a3.2,3.2,0,0,0-3.164-3.16A3.127,3.127,0,0,0,338.828,37,3.055,3.055,0,0,0,341.906,40.078Zm-2.813,5.82h-.075V83.25a5.652,5.652,0,0,0,5.7,5.606h.178V51.508A5.733,5.733,0,0,0,339.093,45.9Zm87.6,42.958A5.656,5.656,0,0,1,421,83.25V28.533h.188a5.65,5.65,0,0,1,5.6,5.7V88.856ZM468.66,70.318H436.1A16.317,16.317,0,0,0,452.29,83.071,17.336,17.336,0,0,0,463.413,79a6.157,6.157,0,0,1,7.962-.448A22.738,22.738,0,0,1,452.29,88.856c-12.3,0-22.253-9.583-22.253-21.43,0-11.94,9.952-21.527,22.253-21.527,11.4,0,20.989,8.228,22.067,18.9C474.724,67.963,471.73,70.228,468.66,70.318ZM452.29,51.683A16.3,16.3,0,0,0,436.1,64.529h31.106a.953.953,0,0,0,1-1A16.33,16.33,0,0,0,452.29,51.683Zm-42.427,5.791a15.547,15.547,0,0,0-12.211-5.791,15.694,15.694,0,1,0,0,31.388A16.114,16.114,0,0,0,408.237,79a5.8,5.8,0,0,1,7.769-.359A21.517,21.517,0,1,1,397.652,45.9a21.387,21.387,0,0,1,19.536,12.477A5.9,5.9,0,0,1,409.863,57.474Zm60.859-13.735-.9-1.784h-.8v1.784h-.644V39.5h1.643a1.212,1.212,0,0,1,1.315,1.238,1.113,1.113,0,0,1-.844,1.126l.976,1.874Zm-.745-3.66h-.952v1.327h.952a.666.666,0,1,0,0-1.327Zm-3.8,1.54a3.559,3.559,0,0,1,3.561-3.557h0a3.561,3.561,0,0,1,3.56,3.557h0a3.564,3.564,0,0,1-3.56,3.56h0a3.561,3.561,0,0,1-3.561-3.56Zm.6,0a2.971,2.971,0,0,0,2.964,2.966h0A2.971,2.971,0,0,0,472.7,41.62h0a2.968,2.968,0,0,0-2.962-2.963h0a2.969,2.969,0,0,0-2.964,2.963Z" transform="translate(-22.247 -27.566)" fill="#ea3724"/>
        <path id="Path_127" data-name="Path 127" d="M142.893,57.783a15.555,15.555,0,0,0-12.212-5.791,15.694,15.694,0,1,0,0,31.388,16.093,16.093,0,0,0,10.579-4.073,5.808,5.808,0,0,1,7.775-.359,21.518,21.518,0,1,1-18.354-32.742,21.383,21.383,0,0,1,19.534,12.477A5.9,5.9,0,0,1,142.893,57.783Zm31.47-4.521a9.5,9.5,0,0,0-4.8-1.27,9.768,9.768,0,0,0-9.771,9.678V83.65a5.55,5.55,0,0,1-5.6,5.514H154V61.67a15.538,15.538,0,0,1,15.559-15.463,15.323,15.323,0,0,1,12.125,5.878A5.8,5.8,0,0,1,174.363,53.262ZM216.5,70.627H183.937a16.331,16.331,0,0,0,16.2,12.753,17.346,17.346,0,0,0,11.117-4.073,6.149,6.149,0,0,1,7.954-.448,22.723,22.723,0,0,1-19.071,10.306c-12.309,0-22.262-9.583-22.262-21.43,0-11.94,9.953-21.527,22.262-21.527,11.385,0,20.978,8.228,22.067,18.9C222.553,68.272,219.574,70.537,216.5,70.627ZM200.137,51.992a16.312,16.312,0,0,0-16.2,12.846h31.115a.956.956,0,0,0,1-1A16.342,16.342,0,0,0,200.137,51.992Zm68.7,37.173a5.74,5.74,0,0,1-5.8-5.606V67.735c0-9.774-6.33-15.742-16.455-15.742a15.694,15.694,0,1,0,0,31.388,16.874,16.874,0,0,0,12.393-5.334c.178.266.363.539.544.813a5.817,5.817,0,0,1-2.36,7.869,23.294,23.294,0,0,1-10.576,2.437,21.479,21.479,0,1,1,0-42.958c13.3,0,22.255,8.592,22.255,21.527ZM372.157,70.627H339.6A16.32,16.32,0,0,0,355.787,83.38a17.37,17.37,0,0,0,11.13-4.073,6.141,6.141,0,0,1,7.95-.448,22.742,22.742,0,0,1-19.08,10.306c-12.3,0-22.248-9.583-22.248-21.43,0-11.94,9.95-21.527,22.248-21.527,11.4,0,20.982,8.228,22.073,18.9C378.22,68.272,375.229,70.537,372.157,70.627Zm-16.37-18.635A16.3,16.3,0,0,0,339.6,64.838H370.71a.947.947,0,0,0,1-1A16.338,16.338,0,0,0,355.787,51.992ZM335.2,46.478a5.846,5.846,0,0,0-7.383,3.529l-7.934,23.159h.009l-3.207,9.309v.181c-.085.088-.085.27-.182.36,0-.09-.082-.272-.082-.36s0-.088-.094-.181L305.207,50.006a5.782,5.782,0,0,0-7.324-3.529L310.9,84.372c0-.084-.087-.084-.087-.178.9,3.075,3.166,4.971,5.691,4.971,2.624,0,4.885-1.9,5.706-4.971v.178l3.817-11.207h.012Zm-72.392-.27v.178a5.712,5.712,0,0,0,5.7,5.607h7.415V89.165h.09a5.651,5.651,0,0,0,5.7-5.606V27.875h-.184a5.617,5.617,0,0,0-5.6,5.517V46.207Zm26.067,0h-.09V83.559a5.649,5.649,0,0,0,5.689,5.606h.188V51.817A5.734,5.734,0,0,0,288.879,46.207Zm2.8-5.82a3.129,3.129,0,0,0,3.163-3.076,3.2,3.2,0,0,0-3.163-3.16,3.124,3.124,0,0,0-3.075,3.16A3.053,3.053,0,0,0,291.683,40.387Z" transform="translate(-109.158 -27.875)" fill="#78cbd8"/>
      </g>
      <path id="Path_128" data-name="Path 128" d="M133.621,42.124C123.13,24.735,106.853,12.782,86.648,9.238c-20.766-3.644-42.377,3.68-57.474,18.134C12.977,42.876,6.056,66.2,9.361,88.13c2.26,14.99,8.307,30.011,19.759,40.27,1.878,1.68,8.041,7.491,10.259,5.948,1.035-.719-2.291-5.134-2.8-5.651a139.378,139.378,0,0,1-11.028-12.787C15.358,102.693,12.376,87.8,14.673,71.463c2.856-20.272,13.58-37.545,31.353-48,18.658-10.983,41.913-11.323,61.216-1.881,11.391,5.573,21.532,14.971,26.685,26.649a61.706,61.706,0,0,1,4.5,32,59.867,59.867,0,0,1-36.81,48c-20.842,8.472-45.359,3.366-61.54-12.053C22.36,99.294,22.251,70.848,34.67,50.961c11.245-18.009,33.038-26.8,53.688-23.243a52.35,52.35,0,0,1,15.156,5.331c1.377.716,5.2,3.886,5.237.972.049-3.557-8.358-7.931-10.359-8.854a54.256,54.256,0,0,0-16.808-4.439c-17.162-1.895-34.327,5.2-45.9,17.784-12.4,13.479-16.8,32.693-13.142,50.4,2.781,13.47,11.079,26.682,21.423,35.618,14.1,12.192,33.6,16.491,51.663,12.753,20.538-5.135,36.553-18.873,44.128-38.792C146.855,79.821,143.8,58.99,133.621,42.124Z" transform="translate(-8.556 -8.312)" fill="#ea3724"/>
    </g>
  </g>
</svg>
