<svg xmlns="http://www.w3.org/2000/svg" width="600" height="94.888" viewBox="0 0 600 94.888">
  <g id="fusionalliance-white" transform="translate(-17.891 -101.48)">
    <g id="Group_132" data-name="Group 132" transform="translate(152.201 123.75)">
      <g id="Group_130" data-name="Group 130">
        <path id="Path_289" data-name="Path 289" d="M96.224,121.646v12.212H115.5a.383.383,0,0,1,.384.384v7.872a.384.384,0,0,1-.384.384H96.224v19.77a.383.383,0,0,1-.384.384H86.884a.384.384,0,0,1-.384-.384V113.494a.5.5,0,0,1,.5-.5h31.925a.383.383,0,0,1,.384.384v7.879a.384.384,0,0,1-.384.384Z" transform="translate(-86.5 -112.719)" fill="#fff"/>
        <path id="Path_290" data-name="Path 290" d="M127.829,156.135a.384.384,0,0,1-.384-.384v-2.96a12.515,12.515,0,0,1-9.1,3.763,11.89,11.89,0,0,1-8.6-3.2c-2.936-2.932-3.7-6.347-3.7-10.323V120.186a.384.384,0,0,1,.384-.384h8.324a.384.384,0,0,1,.384.384v21.593c0,4.947,3.148,6.619,6.018,6.619s6.086-1.672,6.086-6.619V120.186a.384.384,0,0,1,.384-.384h8.322a.385.385,0,0,1,.386.384v35.566a.385.385,0,0,1-.386.384Z" transform="translate(-67.785 -106.204)" fill="#fff"/>
        <path id="Path_291" data-name="Path 291" d="M140.457,156.757c-5.614,0-10.7-.6-15.234-4.947a.4.4,0,0,1-.008-.566l5.4-5.387a.378.378,0,0,1,.525,0c2.968,2.768,6.74,3.162,9.457,3.162,3.142,0,6.431-1.049,6.431-3.77,0-1.809-.977-3.068-3.849-3.346l-5.732-.552c-6.574-.632-10.63-3.486-10.63-10.185,0-7.533,6.642-11.575,14.056-11.575,5.5,0,10.148.918,13.615,3.974a.389.389,0,0,1,.025.564l-4.82,4.865c-.4.4-.6.4-.756.278-2.1-1.705-5.186-2.226-8.206-2.226-3.639,0-5.174,1.682-5.174,3.49,0,1.329.556,2.864,3.778,3.136l5.736.562c7.2.695,10.845,4.53,10.845,10.669C155.922,152.928,149.066,156.757,140.457,156.757Z" transform="translate(-49.535 -106.407)" fill="#fff"/>
        <path id="Path_292" data-name="Path 292" d="M144.771,119.866V113.24a.384.384,0,0,1,.384-.384h8.529a.384.384,0,0,1,.384.384v6.627a.384.384,0,0,1-.384.384h-8.529A.384.384,0,0,1,144.771,119.866Zm.137,42.537V126.837a.385.385,0,0,1,.386-.384h8.326a.385.385,0,0,1,.386.384V162.4a.385.385,0,0,1-.386.384h-8.326A.385.385,0,0,1,144.908,162.4Z" transform="translate(-30.699 -112.856)" fill="#fff"/>
        <path id="Path_293" data-name="Path 293" d="M180.7,152.3a15.128,15.128,0,0,1-11.331,4.458,14.97,14.97,0,0,1-11.26-4.458c-3.289-3.42-4.125-7.537-4.125-14.167,0-6.55.836-10.665,4.125-14.077a14.958,14.958,0,0,1,11.26-4.465,15.115,15.115,0,0,1,11.331,4.465c3.293,3.412,4.131,7.527,4.131,14.077C184.834,144.763,184,148.88,180.7,152.3Zm-7.067-22.947a5.747,5.747,0,0,0-4.264-1.607,5.587,5.587,0,0,0-4.193,1.607c-1.889,1.881-2.1,5.021-2.1,8.78s.213,6.981,2.1,8.86a5.557,5.557,0,0,0,4.193,1.607,5.716,5.716,0,0,0,4.264-1.607c1.889-1.879,2.1-5.09,2.1-8.86S175.526,131.234,173.637,129.353Z" transform="translate(-21.872 -106.407)" fill="#fff"/>
        <path id="Path_294" data-name="Path 294" d="M195.862,156.338a.384.384,0,0,1-.384-.384V134.374c0-4.953-3.156-6.628-6.027-6.628s-6.078,1.676-6.078,6.628v21.581a.384.384,0,0,1-.384.384h-8.324a.384.384,0,0,1-.384-.384V120.389a.384.384,0,0,1,.384-.384h8.112a.384.384,0,0,1,.384.384v2.968a12.468,12.468,0,0,1,9.1-3.766,11.845,11.845,0,0,1,8.6,3.209c2.938,2.931,3.7,6.341,3.7,10.321v22.836a.384.384,0,0,1-.384.384Z" transform="translate(-2.439 -106.407)" fill="#fff"/>
      </g>
      <g id="Group_131" data-name="Group 131" transform="translate(231.028 0.049)">
        <path id="Path_295" data-name="Path 295" d="M239.652,162.465l-3.9-11H214l-3.9,11a.389.389,0,0,1-.366.258H204.9a.39.39,0,0,1-.366-.523l18.036-49.029a.392.392,0,0,1,.366-.254h3.939a.39.39,0,0,1,.366.254L245.218,162.2a.389.389,0,0,1-.366.523h-4.833A.389.389,0,0,1,239.652,162.465Zm-14.678-41.924-9.367,26.3h18.605Z" transform="translate(-204.515 -112.846)" fill="#fff"/>
        <path id="Path_296" data-name="Path 296" d="M237.116,162.724c-6.02,0-8.747-3.917-8.747-9.16V113.306a.389.389,0,0,1,.39-.388h4.26a.388.388,0,0,1,.388.388v40.047c0,3.361,1.116,5.037,4.618,5.037h2.337a.388.388,0,0,1,.388.39v3.557a.387.387,0,0,1-.388.388Z" transform="translate(-181.672 -112.846)" fill="#fff"/>
        <path id="Path_297" data-name="Path 297" d="M247.122,162.724c-6.02,0-8.749-3.917-8.749-9.16V113.306a.387.387,0,0,1,.388-.388h4.264a.389.389,0,0,1,.388.388v40.047c0,3.361,1.12,5.037,4.618,5.037h2.341a.389.389,0,0,1,.39.39v3.557a.389.389,0,0,1-.39.388Z" transform="translate(-172.092 -112.846)" fill="#fff"/>
        <path id="Path_298" data-name="Path 298" d="M248.307,118.161v-4.892a.389.389,0,0,1,.39-.388h4.888a.387.387,0,0,1,.388.388v4.892a.388.388,0,0,1-.388.39H248.7A.389.389,0,0,1,248.307,118.161Zm.284,44.211V128.74a.389.389,0,0,1,.388-.39h4.26a.389.389,0,0,1,.39.39v33.632a.389.389,0,0,1-.39.388h-4.26A.389.389,0,0,1,248.591,162.372Z" transform="translate(-162.579 -112.881)" fill="#fff"/>
        <path id="Path_299" data-name="Path 299" d="M278.126,155.4a.389.389,0,0,1-.39-.388v-2.9c-2.8,2.8-5.319,3.708-9.939,3.708-4.751,0-7.552-.906-9.714-3.14a9.9,9.9,0,0,1-2.594-7c0-6.014,4.193-9.935,11.9-9.935h10.348v-3.293c0-5.033-2.521-7.549-8.815-7.549-4.225,0-6.454.967-8.42,3.567a.387.387,0,0,1-.57.063l-2.839-2.615a.409.409,0,0,1-.037-.546c3.017-3.745,6.478-4.806,11.936-4.806,9.232,0,13.778,3.986,13.778,11.472v22.975a.387.387,0,0,1-.388.388Zm-.39-15.88h-9.657c-5.174,0-7.689,2.1-7.689,6.092,0,3.98,2.449,5.871,7.9,5.871,2.936,0,5.528-.211,7.693-2.3,1.19-1.126,1.752-3.087,1.752-5.953Z" transform="translate(-155.7 -105.522)" fill="#fff"/>
        <path id="Path_300" data-name="Path 300" d="M297.5,155.4a.388.388,0,0,1-.388-.388V134.2c0-6.084-3.289-9.164-8.461-9.164s-8.537,3.152-8.537,9.164v20.808a.389.389,0,0,1-.388.388h-4.264a.389.389,0,0,1-.39-.388V121.38a.389.389,0,0,1,.39-.39h4.264a.389.389,0,0,1,.388.39v3.385a12.392,12.392,0,0,1,9.651-4.2,12.064,12.064,0,0,1,8.815,3.214c2.449,2.382,3.577,5.6,3.577,9.592v21.64a.389.389,0,0,1-.39.388Z" transform="translate(-136.951 -105.522)" fill="#fff"/>
        <path id="Path_301" data-name="Path 301" d="M308.834,155.819c-8.678,0-15.256-5.869-15.256-17.626s6.578-17.626,15.256-17.626c4.628,0,7.609,1.2,11.055,4.806a.4.4,0,0,1-.01.566l-2.856,2.688a.392.392,0,0,1-.552-.029c-2.467-2.641-4.459-3.555-7.637-3.555a9.335,9.335,0,0,0-7.979,3.917c-1.6,2.24-2.236,4.9-2.236,9.234s.632,6.995,2.236,9.232a9.326,9.326,0,0,0,7.979,3.917c3.177,0,5.168-.977,7.633-3.622a.4.4,0,0,1,.556-.025l2.862,2.745a.4.4,0,0,1,.008.562C316.447,154.629,313.464,155.819,308.834,155.819Z" transform="translate(-119.226 -105.522)" fill="#fff"/>
        <path id="Path_302" data-name="Path 302" d="M314.983,139.52c0,7.558,3.563,11.895,10.144,11.895a11.184,11.184,0,0,0,8.768-3.659.393.393,0,0,1,.527-.022l2.844,2.49a.4.4,0,0,1,.01.585,15.651,15.651,0,0,1-12.29,5.01c-9.093,0-15.04-5.454-15.04-17.626,0-11.125,5.385-17.626,14.128-17.626,8.884,0,14.14,6.437,14.14,16.65v2.038c0,.139-.023.266-.28.266Zm17.133-9.514a8.835,8.835,0,0,0-16.084,0,14.517,14.517,0,0,0-1.049,5.74h18.182A14.312,14.312,0,0,0,332.116,130.006Z" transform="translate(-103.552 -105.522)" fill="#fff"/>
      </g>
    </g>
    <g id="Group_133" data-name="Group 133" transform="translate(17.891 101.48)">
      <path id="Path_303" data-name="Path 303" d="M42.154,130.6a14.56,14.56,0,1,0-12.088-6.421A14.49,14.49,0,0,0,42.154,130.6Z" transform="translate(-8.61 -101.48)" fill="#fff"/>
      <path id="Path_304" data-name="Path 304" d="M61.577,130.6a14.561,14.561,0,1,0-12.086-6.421A14.49,14.49,0,0,0,61.577,130.6Z" transform="translate(9.991 -101.48)" fill="#fff"/>
      <path id="Path_305" data-name="Path 305" d="M61.568,164.2a14.56,14.56,0,1,0-12.088-6.421A14.5,14.5,0,0,0,61.568,164.2Z" transform="translate(9.981 -69.309)" fill="#fff"/>
      <path id="Path_306" data-name="Path 306" d="M71.249,147.395a14.561,14.561,0,1,0-12.086-6.423A14.506,14.506,0,0,0,71.249,147.395Z" transform="translate(19.252 -85.399)" fill="#fff"/>
      <path id="Path_307" data-name="Path 307" d="M51.856,147.395a14.56,14.56,0,1,0-12.088-6.423A14.506,14.506,0,0,0,51.856,147.395Z" transform="translate(0.68 -85.399)" fill="#fff"/>
      <path id="Path_308" data-name="Path 308" d="M63.472,157.58a14.514,14.514,0,0,0-8.179-5.867c.006.014,0,.006,0,0-6.836-1.887-12.077-4.037-8.976-14.482.057-.178.108-.36.157-.542.023-.09.055-.208.051-.208.074-.29.157-.577.215-.875a14.566,14.566,0,1,0-17.75,11.364c9.953,2.85,10.573,6.425,8.361,14.954,0,.027-.012.053-.012.065a14.553,14.553,0,1,0,26.128-4.41Z" transform="translate(-17.891 -85.399)" fill="#fff"/>
    </g>
  </g>
</svg>
