<svg xmlns="http://www.w3.org/2000/svg" width="600" height="79.177" viewBox="0 0 600 79.177">
  <g id="hyperquake-color" transform="translate(-31.06 -97.847)">
    <path id="Path_148" data-name="Path 148" d="M57.185,172.164V139.7H42.711v32.468H31.06V98.06H42.711v31.224H57.185V98.06H68.835v74.1Z" transform="translate(0 0.619)" fill="#1a1818"/>
    <path id="Path_149" data-name="Path 149" d="M72.759,143.127v29.037H61.1V143.127L46.736,98.061H59.643l7.291,29.353,7.385-29.353h12.8Z" transform="translate(45.447 0.62)" fill="#1a1818"/>
    <g id="Group_100" data-name="Group 100" transform="translate(155.965 97.847)">
      <path id="Path_150" data-name="Path 150" d="M81.728,143.228H74.749v28.936H63.094V98.06H81.728c13.425,0,19.043,6.976,19.043,22.486,0,14.984-4.991,22.681-19.043,22.681m.207-34.656H74.749V132.72h7.186c6.239,0,7.186-5.509,7.186-12.072s-.947-12.076-7.186-12.076" transform="translate(-63.094 -97.229)" fill="#1a1818"/>
      <path id="Path_151" data-name="Path 151" d="M79.248,172.164V98.06h31.123v10.512H90.91V129.6h16.762v10.512H90.91v21.543h19.461v10.508Z" transform="translate(-16.261 -97.228)" fill="#1a1818"/>
      <path id="Path_152" data-name="Path 152" d="M121.617,172.164l-9.674-30.39h-6.57v30.39H93.722V98.06h18.739c13.526,0,18.946,6.558,18.946,21.859,0,9.155-1.875,15.714-8.648,19.359L133.8,172.164Zm-9.062-63.591h-7.182v22.689h7.182c6.254,0,7.19-5.2,7.19-11.343s-.936-11.347-7.19-11.347" transform="translate(25.701 -97.229)" fill="#1a1818"/>
      <path id="Path_153" data-name="Path 153" d="M159.264,167.579c-3.544,3.646-8.219,5.416-13.741,5.416s-10.305-1.77-13.838-5.416a19.106,19.106,0,0,1-5.092-13.628V98.061h11.651v56.51c0,5.307,3.33,7.915,7.28,7.915s7.182-2.609,7.182-7.915V98.061h11.662v55.891a19.113,19.113,0,0,1-5.1,13.628" transform="translate(121 -97.227)" fill="#1a1818"/>
      <path id="Path_154" data-name="Path 154" d="M177.237,172.164l-3.014-14.676h-17.18l-2.913,14.676H141.848l18.217-74.1H171.4l18.014,74.1Zm-11.549-56.2-6.344,31.01h12.688Z" transform="translate(165.226 -97.229)" fill="#1a1818"/>
      <path id="Path_155" data-name="Path 155" d="M189.38,172.164l-11.966-30.491-5.623,11.448v19.043H160.133V98.06h11.658v34.874L187.914,98.06h11.764L184.8,128.766l17.172,43.4Z" transform="translate(218.236 -97.228)" fill="#1a1818"/>
      <path id="Path_156" data-name="Path 156" d="M176.96,172.164V98.06h31.115v10.512H188.61V129.6h16.762v10.512H188.61v21.543h19.465v10.508Z" transform="translate(267.021 -97.228)" fill="#1a1818"/>
      <path id="Path_157" data-name="Path 157" d="M147.746,177.023l-6.18-5.217c-2.87,2.238-6.605,3.622-11.721,3.622-7.252,0-11.506-2.768-14.7-6.391-5.65-6.4-5.537-17.48-5.537-32.4s-.113-26,5.537-32.4c3.2-3.63,7.451-6.391,14.7-6.391s11.514,2.761,14.7,6.391c5.65,6.395,5.548,17.472,5.548,32.4,0,12.469,0,21.847-3.084,28.456l6.285,5.322ZM135.6,111.482a6.283,6.283,0,0,0-5.751-2.878,6.082,6.082,0,0,0-5.638,2.878c-2.351,3.618-2.679,11.187-2.679,25.153s.328,21.523,2.679,25.15a6.085,6.085,0,0,0,5.638,2.881,4.683,4.683,0,0,0,2.55-.538l-3.934-3.31,5.548-6.594,3.084,2.55c.951-4.153,1.068-9.9,1.068-20.139,0-13.967-.218-21.535-2.566-25.153" transform="translate(71.746 -97.847)" fill="#1a1818"/>
    </g>
  </g>
</svg>
