<svg xmlns="http://www.w3.org/2000/svg" width="600" height="79.176" viewBox="0 0 600 79.176">
  <g id="hyperquake-white" transform="translate(-31.06 -815.747)">
    <path id="Path_279" data-name="Path 279" d="M57.185,890.064V857.6H42.711v32.468H31.06v-74.1H42.711v31.224H57.185V815.96H68.835v74.1Z" transform="translate(0 0.619)" fill="#fff"/>
    <path id="Path_280" data-name="Path 280" d="M72.759,861.027v29.037H61.1V861.027L46.736,815.961H59.643l7.291,29.353,7.385-29.353h12.8Z" transform="translate(45.447 0.62)" fill="#fff"/>
    <g id="Group_128" data-name="Group 128" transform="translate(155.965 815.747)">
      <path id="Path_281" data-name="Path 281" d="M81.728,861.128H74.749v28.936H63.094v-74.1H81.728c13.425,0,19.043,6.976,19.043,22.486,0,14.985-4.991,22.681-19.043,22.681m.207-34.656H74.749v24.147h7.186c6.239,0,7.186-5.51,7.186-12.072s-.947-12.076-7.186-12.076" transform="translate(-63.094 -815.129)" fill="#fff"/>
      <path id="Path_282" data-name="Path 282" d="M79.248,890.064v-74.1h31.123v10.512H90.91V847.5h16.762v10.512H90.91v21.543h19.461v10.508Z" transform="translate(-16.261 -815.128)" fill="#fff"/>
      <path id="Path_283" data-name="Path 283" d="M121.617,890.063l-9.674-30.39h-6.57v30.39H93.722v-74.1h18.739c13.526,0,18.946,6.558,18.946,21.859,0,9.155-1.875,15.714-8.648,19.359L133.8,890.063Zm-9.062-63.592h-7.182v22.689h7.182c6.254,0,7.19-5.2,7.19-11.343s-.936-11.347-7.19-11.347" transform="translate(25.701 -815.129)" fill="#fff"/>
      <path id="Path_284" data-name="Path 284" d="M159.264,885.479c-3.544,3.646-8.219,5.416-13.741,5.416s-10.305-1.771-13.838-5.416a19.105,19.105,0,0,1-5.092-13.627v-55.89h11.651v56.51c0,5.307,3.33,7.916,7.28,7.916s7.182-2.609,7.182-7.916v-56.51h11.662v55.89a19.112,19.112,0,0,1-5.1,13.627" transform="translate(121 -815.127)" fill="#fff"/>
      <path id="Path_285" data-name="Path 285" d="M177.237,890.065l-3.014-14.677h-17.18l-2.913,14.677H141.848l18.217-74.1H171.4l18.014,74.1Zm-11.549-56.2-6.344,31.01h12.688Z" transform="translate(165.226 -815.127)" fill="#fff"/>
      <path id="Path_286" data-name="Path 286" d="M189.38,890.064l-11.966-30.491-5.623,11.448v19.043H160.133v-74.1h11.658v34.874l16.123-34.874h11.764L184.8,846.666l17.172,43.4Z" transform="translate(218.236 -815.128)" fill="#fff"/>
      <path id="Path_287" data-name="Path 287" d="M176.96,890.064v-74.1h31.115v10.512H188.61V847.5h16.762v10.512H188.61v21.543h19.465v10.508Z" transform="translate(267.021 -815.128)" fill="#fff"/>
      <path id="Path_288" data-name="Path 288" d="M147.746,894.923l-6.18-5.217c-2.87,2.238-6.605,3.622-11.721,3.622-7.252,0-11.506-2.768-14.7-6.391-5.65-6.4-5.537-17.48-5.537-32.4s-.113-26,5.537-32.4c3.2-3.63,7.451-6.391,14.7-6.391s11.514,2.761,14.7,6.391c5.65,6.395,5.548,17.472,5.548,32.4,0,12.469,0,21.847-3.084,28.456l6.285,5.322ZM135.6,829.383a6.283,6.283,0,0,0-5.751-2.878,6.083,6.083,0,0,0-5.638,2.878c-2.351,3.618-2.679,11.187-2.679,25.153s.328,21.523,2.679,25.15a6.085,6.085,0,0,0,5.638,2.881,4.682,4.682,0,0,0,2.55-.538l-3.934-3.311,5.548-6.593,3.084,2.55c.951-4.153,1.068-9.9,1.068-20.139,0-13.967-.218-21.535-2.566-25.153" transform="translate(71.746 -815.747)" fill="#fff"/>
    </g>
  </g>
</svg>
