<svg xmlns="http://www.w3.org/2000/svg" width="600" height="185.646" viewBox="0 0 600 185.646">
  <g id="xdmfa-white" transform="translate(-221.057 -696.001)">
    <g id="Group_135" data-name="Group 135" transform="translate(470.796 757.498)">
      <path id="Path_309" data-name="Path 309" d="M494.037,854.073H461.775a2.288,2.288,0,0,1-2.285-2.287V795.966L442,833.1a2.3,2.3,0,0,1-2.073,1.313h-16.8a2.273,2.273,0,0,1-2.062-1.31l-17.489-37v55.678a2.29,2.29,0,0,1-2.287,2.287H369.025a2.288,2.288,0,0,1-2.287-2.287V734.159a2.287,2.287,0,0,1,2.287-2.285h32.763a2.3,2.3,0,0,1,2.071,1.311l27.663,58.778,27.511-58.773a2.29,2.29,0,0,1,2.073-1.317h32.931a2.287,2.287,0,0,1,2.287,2.285V851.787A2.289,2.289,0,0,1,494.037,854.073ZM464.062,849.5h27.689V736.446H462.562L433.6,798.315a2.281,2.281,0,0,1-2.073,1.317h0a2.3,2.3,0,0,1-2.073-1.312L400.34,736.446H371.312V849.5H399V785.917a2.289,2.289,0,0,1,1.786-2.234,2.323,2.323,0,0,1,2.563,1.255l21.223,44.9h13.908L459.7,784.773a2.287,2.287,0,0,1,4.358.974Z" transform="translate(-366.738 -731.874)" fill="#fff"/>
      <path id="Path_310" data-name="Path 310" d="M486.186,854.073H453.923a2.289,2.289,0,0,1-2.287-2.287V734.159a2.287,2.287,0,0,1,2.287-2.285h88.042a2.287,2.287,0,0,1,2.287,2.285v27.226a2.287,2.287,0,0,1-2.287,2.285H488.471v13.743H530.2a2.287,2.287,0,0,1,2.287,2.285v26.717A2.288,2.288,0,0,1,530.2,808.7H488.471v43.083A2.288,2.288,0,0,1,486.186,854.073ZM456.21,849.5H483.9V806.416a2.287,2.287,0,0,1,2.287-2.287h41.729V781.986H486.186A2.287,2.287,0,0,1,483.9,779.7V761.385a2.287,2.287,0,0,1,2.287-2.287h53.493V736.446H456.21Z" transform="translate(-306.097 -731.874)" fill="#fff"/>
      <path id="Path_311" data-name="Path 311" d="M621.649,854.073H586.527a2.28,2.28,0,0,1-2.187-1.63l-5.4-18.029H542.019l-5.4,18.029a2.287,2.287,0,0,1-2.187,1.63H499.314A2.284,2.284,0,0,1,497.171,851l43.356-117.627a2.288,2.288,0,0,1,2.145-1.495h35.619a2.288,2.288,0,0,1,2.145,1.495L623.792,851a2.284,2.284,0,0,1-2.143,3.077ZM588.234,849.5H618.37L576.7,736.446H544.261L502.594,849.5h30.135l5.395-18.029a2.285,2.285,0,0,1,2.189-1.63h40.329a2.275,2.275,0,0,1,2.187,1.63Zm-15.149-40.123H547.708a2.28,2.28,0,0,1-1.831-.916,2.334,2.334,0,0,1-.367-2.019l12.6-42.681a2.3,2.3,0,0,1,2.2-1.641h0a2.281,2.281,0,0,1,2.189,1.63l12.771,42.682a2.287,2.287,0,0,1-2.187,2.943ZM550.772,804.8h19.239l-9.682-32.369Z" transform="translate(-273.673 -731.874)" fill="#fff"/>
    </g>
    <g id="Group_136" data-name="Group 136" transform="translate(221.057 696.001)">
      <path id="Path_312" data-name="Path 312" d="M302.08,854.15v-9.009l-9.026-.026V827.071h-8.916v-9.026h-6.728v-8.972h-7.932l-.045,8.972h-6.687l-.04,9.026h-8.978l-.031,18.044-9.021.026v9.009H221.057V830.557h9.026v-9.051h9.031l.031-17.089h9.021v-7.7h9.026v-8.039h-9.026v-7.7h-9.021l-.031-17.089h-9.031v-9.051h-9.026V731.246h23.617v9.009l9.021.026.031,18.043H262.7l.04,9.026h6.687l.045,8.972h7.932V767.35h6.728v-9.026h8.916V740.281l9.026-.026v-9.009H325.7v23.592h-9.026v9.051h-8.956v17.089H298.79v7.7h-9.026v8.039h9.026v7.7h8.925v17.089h8.956v9.051H325.7V854.15Z" transform="translate(-221.057 -670.826)" fill="#fff"/>
      <path id="Path_313" data-name="Path 313" d="M409.149,853.676h-2.131c-4.263,0-7.726-1.065-7.726-7.992V696h-6.23c-17.234,0-24.914,9.274-24.914,23.263l0,.005V765.82c-7.491-6.905-17.421-11.244-30.391-11.244-35.431,0-55.411,26.107-55.411,63.936,0,37.562,19.447,63.135,55.677,63.135,15.718,0,27.173-5.861,34.632-15.185,3.73,9.058,11.455,13.054,20.779,13.054h14.121c5.859,0,6.393-1.332,6.393-11.455v-4.795C413.944,855.008,413.41,853.676,409.149,853.676Zm-66.334,1.6c-20.246,0-29.3-17.316-29.3-37.03,0-19.447,9.057-37.3,29.3-37.3,20.781,0,29.837,18.648,29.837,37.3C372.652,837.16,363.328,855.275,342.814,855.275Z" transform="translate(-177.281 -696.001)" fill="#fff"/>
    </g>
  </g>
</svg>
