<svg xmlns="http://www.w3.org/2000/svg" xmlns:xlink="http://www.w3.org/1999/xlink" width="600" height="222.682" viewBox="0 0 600 222.682">
  <defs>
    <radialGradient id="radial-gradient" cx="155.968" cy="133.441" r="105.179" gradientTransform="matrix(1.039, 0, 0, -1.039, -4.173, 227.018)" gradientUnits="userSpaceOnUse">
      <stop offset="0.414" stop-color="#fff" stop-opacity="0.302"/>
      <stop offset="1" stop-color="#fff" stop-opacity="0.8"/>
    </radialGradient>
  </defs>
  <g id="alchemy-white" transform="translate(-48.8 -22.1)">
    <g id="Group_118" data-name="Group 118" transform="translate(61.886 69.209)">
      <g id="Group_117" data-name="Group 117" transform="translate(0 0)">
        <path id="Path_210" data-name="Path 210" d="M299.446,182.362a1.372,1.372,0,0,1-1.346-1.346h0a1.339,1.339,0,0,1,1.346-1.346h4.412a.83.83,0,0,0,.823-.823V115.812a.83.83,0,0,0-.823-.823h-3.739a1.4,1.4,0,0,1-1.421-1.2h0c0-1.047.748-1.346,1.5-1.346l11.964.075h1.57s3.664-.075,5.832-.224c2.243-.224,5.758-.748,5.758-.748a6.972,6.972,0,0,1,1.047-.15c.673,0,1.5.374,1.5,1.72v66.1a.83.83,0,0,0,.823.823l3.814.15a1.39,1.39,0,0,1,1.346,1.346h0a1.339,1.339,0,0,1-1.346,1.346Z" transform="translate(-124.77 -91.734)" fill="#fff"/>
        <path id="Path_211" data-name="Path 211" d="M409.892,182.732a1.254,1.254,0,0,1,.224,1.72,20.28,20.28,0,0,1-9.123,8,33,33,0,0,1-15.628,2.393c-8.6-.523-15.479-3.215-20.563-8.076-5.16-4.935-7.7-11.142-7.7-18.769,0-7.7,2.617-13.759,7.777-18.1s12.188-6.356,20.937-5.832c8.151.449,14.432,2.318,18.769,5.384a14.363,14.363,0,0,1,6.58,12.338c0,3.44-.972,6.057-2.991,7.926s-4.786,2.617-8.225,2.393a11.015,11.015,0,0,1-7.552-3.215,10.34,10.34,0,0,1-2.767-7.552,9.591,9.591,0,0,1,.972-4.711,7.839,7.839,0,0,1,3.215-2.991c.374-.224.9-.449,1.5-.823q2.468-1.122,2.468-2.692a2.446,2.446,0,0,0-1.421-2.094,8.223,8.223,0,0,0-3.739-1.047,7.681,7.681,0,0,0-7.926,4.487c-1.645,3.215-2.468,8.524-2.468,16,0,8.749.9,14.806,2.617,18.17,1.795,3.365,4.786,5.16,9.123,5.384a13.181,13.181,0,0,0,7.627-2.019,23.533,23.533,0,0,0,6.505-6.132A1.3,1.3,0,0,1,409.892,182.732Z" transform="translate(-139.652 -99.955)" fill="#fff"/>
        <path id="Path_212" data-name="Path 212" d="M441,187.744a1.4,1.4,0,0,1,1.5-1.346c1.047.075,2.094.15,3.215.224a1.154,1.154,0,0,0,1.122-1.2v-63.41c-1.57-.15-3.066-.224-4.636-.374a1.232,1.232,0,0,1-1.122-1.271,1.32,1.32,0,0,1,1.346-1.271c4.187.374,8.375.673,12.637,1.047a65.963,65.963,0,0,0,6.655.224q3.365-.112,6.505-.449c1.271-.224,1.795.449,1.795,1.271v29.088c.3,0,.673.075.972.075a18.661,18.661,0,0,1,7.1-5.309,19.891,19.891,0,0,1,8.9-1.047c5.384.523,9.2,2.243,11.59,5.234,2.318,2.991,3.514,7.926,3.514,14.806v26.1c0,1.2.6,1.5.9,1.57,1.122.075,2.318.224,3.44.374a1.356,1.356,0,1,1-.3,2.692c-9.646-.972-19.367-1.869-29.013-2.767a1.358,1.358,0,0,1-1.271-1.346,1.278,1.278,0,0,1,1.421-1.346c.3,0,.523.075.823.075.523,0,.9-.224.9-1.047V157.011a8.152,8.152,0,0,0-.823-4.038,2.927,2.927,0,0,0-2.468-1.5c-1.869-.15-3.29.748-4.337,2.767-.972,2.019-1.5,5.085-1.5,9.048V187.52c0,.823.523,1.047.823,1.047.374,0,.748.075,1.122.075a1.289,1.289,0,0,1,1.122,1.421,1.3,1.3,0,0,1-1.421,1.271c-9.721-.9-19.516-1.72-29.237-2.468A1.062,1.062,0,0,1,441,187.744Z" transform="translate(-160.816 -93.676)" fill="#fff"/>
        <path id="Path_213" data-name="Path 213" d="M598.154,190.526c-10.693-1.047-21.386-2.094-32.154-3.215v5.982q0,6.618,2.916,10.319a11.765,11.765,0,0,0,8.45,4.262,19.581,19.581,0,0,0,10.319-1.57,23.532,23.532,0,0,0,7.777-6.206,1.268,1.268,0,0,1,1.795-.15,1.292,1.292,0,0,1,.224,1.72,20.458,20.458,0,0,1-9.8,7.7c-4.487,1.72-10.02,2.243-16.525,1.57-9.123-.9-16.451-4.038-21.909-9.272a25.65,25.65,0,0,1-8.151-19.292c0-7.478,2.692-13.31,8.151-17.5s12.562-5.758,21.386-4.86c9.272.972,16.451,4.038,21.461,9.347,4.711,4.935,7.253,11.515,7.627,19.591C599.649,189.928,599.35,190.6,598.154,190.526ZM576.1,186.04V169.589a8.66,8.66,0,0,0-1.2-5.085,5.017,5.017,0,0,0-3.814-1.944,4.2,4.2,0,0,0-3.814,1.2c-.823.972-1.2,2.542-1.2,4.86v16.451C569.44,185.367,572.73,185.741,576.1,186.04Z" transform="translate(-186.065 -103.936)" fill="#fff"/>
        <path id="Path_214" data-name="Path 214" d="M657.268,177.815a13.914,13.914,0,0,1,6.431-6.505,18.686,18.686,0,0,1,9.945-1.645,16.439,16.439,0,0,1,9.123,3.365,11.574,11.574,0,0,1,4.487,7.328c.224,0,.523.075.748.075a14.422,14.422,0,0,1,6.431-6.58,19.293,19.293,0,0,1,9.945-1.795c5.16.374,8.9,2.019,11.142,4.86,2.243,2.916,3.365,7.777,3.365,14.656v26.62c0,.972.449.972.673.972,1.122.075,2.243.15,3.44.224a1.343,1.343,0,0,1,1.271,1.421,1.2,1.2,0,0,1-1.346,1.271c-9.2-.523-18.395-1.2-27.592-1.869a1.363,1.363,0,0,1-1.271-1.5,1.309,1.309,0,0,1,1.5-1.2c.3,0,.673.075.972.075.224,0,.673.15.673-.748v-31.63a8.252,8.252,0,0,0-.748-4.038,2.738,2.738,0,0,0-2.393-1.421c-1.869-.15-3.365.823-4.412,2.841s-1.5,5.085-1.5,9.048V216.1c0,.823.449.823.673.823.374,0,.748.075,1.122.075a1.392,1.392,0,0,1,1.271,1.421,1.364,1.364,0,0,1-1.5,1.271c-8.375-.673-16.75-1.346-25.125-2.094a1.337,1.337,0,0,1-1.271-1.421,1.369,1.369,0,0,1,1.5-1.271c.374,0,.673.075,1.047.075.224,0,.6-.075.6-.823V182.6a8.355,8.355,0,0,0-.823-4.038,2.905,2.905,0,0,0-2.393-1.5,4.24,4.24,0,0,0-4.337,2.767c-.972,2.019-1.5,5.085-1.5,9.048v24.377c0,.9.449.972.748.972.374,0,.823.075,1.2.075a1.393,1.393,0,0,1,1.2,1.421A1.322,1.322,0,0,1,659.137,217c-9.347-.823-18.694-1.72-28.041-2.617a1.393,1.393,0,0,1-1.2-1.421,1.374,1.374,0,0,1,1.57-1.271c1.2.15,2.318.224,3.514.374.224,0,.673-.075.673-.9V169.889c-1.5-.15-3.066-.3-4.561-.449a1.291,1.291,0,0,1-1.122-1.421,1.261,1.261,0,0,1,1.346-1.122c3.365.3,6.8.673,10.169.972a65.566,65.566,0,0,0,6.58.3,47.561,47.561,0,0,0,6.505-.449c.9-.224,1.795,0,1.795,1.2,0,2.841-.075,5.683-.15,8.45A1.988,1.988,0,0,0,657.268,177.815Z" transform="translate(-208.464 -105.732)" fill="#fff"/>
        <path id="Path_215" data-name="Path 215" d="M793.38,227.526q-13.235-23.33-26.471-46.959c-1.346-.075-2.692-.15-4.113-.224A1.315,1.315,0,0,1,761.6,179c0-.748.9-1.2,1.346-1.2,11.366.6,22.732,1.122,34.1,1.421a1.243,1.243,0,0,1,1.271,1.271,1.212,1.212,0,0,1-1.271,1.271c-1.5,0-2.991-.075-4.487-.15,4.711,7.926,9.422,15.778,14.133,23.629,3.215-5.459,6.431-10.992,9.646-16.451a9.843,9.843,0,0,0,.9-1.795,4.235,4.235,0,0,0,.224-1.346,2.693,2.693,0,0,0-1.346-2.542,10.58,10.58,0,0,0-3.813-.972,1.352,1.352,0,0,1-1.2-1.271,1.2,1.2,0,0,1,1.271-1.271c4.935.075,9.945.15,14.88.15a1.318,1.318,0,0,1,1.346,1.346c0,1.047-1.047,1.271-1.2,1.346-3.29.823-6.206,3.365-8.749,7.7-.15.3-.3.523-.374.673-8.6,14.806-17.124,29.462-25.723,44.118-3.066,5.234-5.982,8.824-8.749,10.842a15.121,15.121,0,0,1-9.8,2.767,13.207,13.207,0,0,1-8.749-3.44,10.294,10.294,0,0,1-3.365-7.851,8.346,8.346,0,0,1,2.468-6.505c1.645-1.5,3.963-2.168,6.879-2.019a9.116,9.116,0,0,1,6.132,2.393,7.5,7.5,0,0,1,2.318,5.758,5.978,5.978,0,0,1-2.019,4.487c-1.346,1.271-2.019,2.094-2.019,2.393a1.014,1.014,0,0,0,.523.972,2.22,2.22,0,0,0,1.346.374c1.645.075,3.589-.9,5.907-2.991a32.908,32.908,0,0,0,6.431-8.3C791.136,231.638,792.258,229.62,793.38,227.526Z" transform="translate(-241.685 -108.483)" fill="#fff"/>
        <path id="Path_216" data-name="Path 216" d="M231.853,180.439c-12.114,0-21.61-18.843-21.685-18.993a.073.073,0,0,0-.075-.075L166.2,85.848a1.542,1.542,0,0,0-1.271-.748h0a1.447,1.447,0,0,0-1.271.748L121.41,157.932h0l-7.478,12.637a.073.073,0,0,1-.075.075,2.069,2.069,0,0,1-.3.523c-3.066,4.412-9.646,6.505-15.628,4.86-7.253-2.019-11.441-8.674-11.441-18.395,0-6.954,2.767-13.086,8.3-18.32a35.355,35.355,0,0,1,8.524-5.907,1.665,1.665,0,0,0,.9-1.645,1.587,1.587,0,0,0-1.346-1.271c-.748-.075-17.647-1.2-28.265,8.6-5.459,5.085-8.3,12.114-8.3,21.012,0,7.851,2.767,14.506,7.926,19.143,4.935,4.412,11.74,6.73,19.591,6.73a25.01,25.01,0,0,0,17.348-7.029,27.912,27.912,0,0,0,5.01-6.281c.15-.224.224-.374.374-.6l12.488-21.311h36.042l4.86,8.3,2.094,3.589c1.645,3.514,1.57,10.319-.972,14.357a6.434,6.434,0,0,1-5.683,3.29,1.5,1.5,0,1,0,0,2.991c16.9,0,25.2-4.636,27.966-6.655,2.916,2.094,12.188,6.655,38.509,6.655a1.5,1.5,0,0,0,1.5-1.5A1.379,1.379,0,0,0,231.853,180.439ZM147.133,120.02l16.226,27.817H130.831Z" transform="translate(-66.3 -85.1)" fill="#fff"/>
      </g>
    </g>
    <path id="Path_217" data-name="Path 217" d="M142.27,45.355h-.3c-.075,0-.224-.075-.3-.075s-.15-.075-.224-.15-.15-.15-.224-.15c-.075-.075-.15-.15-.15-.224-.075-.075-.075-.15-.15-.3-.075-.075-.075-.15-.075-.3v-.6c0-.075.075-.224.075-.3.075-.075.075-.15.15-.224s.15-.15.15-.224c.075-.075.15-.15.224-.15.075-.075.15-.075.224-.15s.15-.075.3-.075a.826.826,0,0,1,.6,0c.075,0,.224.075.3.075.075.075.15.075.224.15s.15.15.224.15c.075.075.15.15.15.224.075.075.075.15.15.224,0,.075.075.15.075.3v.6c0,.075-.075.224-.075.3s-.075.15-.15.3c-.075.075-.15.15-.15.224-.075.075-.15.15-.224.15-.075.075-.15.075-.3.15-.075.075-.15.075-.3.075ZM148.4,74.817a1.533,1.533,0,0,0,1.2-1.795l-2.841-14.357a1.525,1.525,0,0,0-2.991.6L146.607,73.7a1.456,1.456,0,0,0,1.5,1.2A.565.565,0,0,1,148.4,74.817Zm26.844,134.6a1.533,1.533,0,0,0,1.2-1.795l-5.982-30.135a1.525,1.525,0,0,0-2.991.6l5.982,30.135a1.456,1.456,0,0,0,1.5,1.2C175.021,209.488,175.1,209.488,175.246,209.413Zm2.991,15.1c.075,0,.224-.075.3-.075.075-.075.15-.075.224-.15s.15-.15.224-.15a1.476,1.476,0,0,0,.449-1.047,1.358,1.358,0,0,0-.449-1.047c-.075-.075-.15-.15-.224-.15-.075-.075-.15-.075-.224-.15s-.15-.075-.3-.075a1.621,1.621,0,0,0-1.346.374l-.224.224c-.075.075-.075.15-.15.224s-.075.15-.075.3v.6c0,.075.075.224.075.3.075.075.075.15.15.224l.224.224c.075.075.15.15.224.15.075.075.15.075.3.15.075.075.15.075.3.075h.3C178.012,224.593,178.087,224.518,178.237,224.518Zm24.9-98.106,32.378-6.431a1.525,1.525,0,0,0-.6-2.991l-32.378,6.431a1.533,1.533,0,0,0-1.2,1.795,1.456,1.456,0,0,0,1.5,1.2Zm8-67.448c.075,0,.224-.075.3-.075.075-.075.15-.075.3-.15.075-.075.15-.15.224-.15a1.476,1.476,0,0,0,.449-1.047,1.358,1.358,0,0,0-.449-1.047c-.075-.075-.15-.15-.224-.15-.075-.075-.15-.075-.3-.15-.075,0-.15-.075-.3-.075a.826.826,0,0,0-.6,0c-.075,0-.224.075-.3.075-.075.075-.15.075-.224.15s-.15.15-.224.15a1.476,1.476,0,0,0-.449,1.047v.3c0,.075.075.224.075.3.075.075.075.15.15.224s.15.15.15.224c.075.075.15.15.224.15.075.075.15.075.224.15s.15.075.3.075h.673Zm-24.3,37.164,16.675-24.975a1.514,1.514,0,1,0-2.542-1.645L184.294,94.483a1.484,1.484,0,0,0,.449,2.094,1.507,1.507,0,0,0,.823.224A1.469,1.469,0,0,0,186.836,96.128ZM119.164,197.449l17.124-25.573a1.514,1.514,0,0,0-2.542-1.645L116.622,195.8a1.484,1.484,0,0,0,.449,2.094,1.507,1.507,0,0,0,.823.224A1.564,1.564,0,0,0,119.164,197.449Zm-9.5,13.46c.075,0,.224-.075.3-.075.075-.075.15-.075.224-.15s.15-.15.224-.15a1.476,1.476,0,0,0,.449-1.047v-.3c0-.075-.075-.224-.075-.3-.075-.075-.075-.15-.15-.224s-.15-.15-.15-.224a1.476,1.476,0,0,0-1.047-.449,1.358,1.358,0,0,0-1.047.449c-.075.075-.15.15-.15.224-.075.075-.075.15-.15.224,0,.075-.075.15-.075.3v.3a1.358,1.358,0,0,0,.449,1.047,1.476,1.476,0,0,0,1.047.449C109.443,210.909,109.518,210.909,109.667,210.909Zm114.855-34.4a1.484,1.484,0,0,0-.449-2.094l-5.533-3.739a1.514,1.514,0,1,0-1.645,2.542l5.533,3.739a1.507,1.507,0,0,0,.823.224A1.665,1.665,0,0,0,224.523,176.512Zm12.637,8.749a1.476,1.476,0,0,0,.449-1.047v-.3c0-.075-.075-.224-.075-.3-.075-.075-.075-.15-.15-.3l-.224-.224a1.337,1.337,0,0,0-1.346-.374c-.075,0-.224.075-.3.075s-.15.075-.3.15c-.075.075-.15.15-.224.15l-.224.224c-.075.075-.075.15-.15.3-.075.075-.075.15-.075.3v.3a1.358,1.358,0,0,0,.449,1.047l.224.224c.075.075.15.075.3.15.075.075.15.075.3.075h.3A1.476,1.476,0,0,0,237.16,185.261ZM84.393,84.164c.075,0,.224-.075.3-.075.075-.075.15-.075.224-.15l.224-.224c.075-.075.15-.15.15-.224.075-.075.075-.15.15-.224s.075-.15.075-.3v-.6c0-.075-.075-.224-.075-.3s-.075-.15-.15-.224-.15-.15-.15-.224l-.224-.224c-.075-.075-.15-.075-.224-.15s-.15-.075-.3-.075a.826.826,0,0,0-.6,0c-.075,0-.224.075-.3.075-.075.075-.15.075-.224.15l-.224.224c-.075.075-.15.15-.15.224-.075.075-.075.15-.15.224s-.075.15-.075.3v.3a1.476,1.476,0,0,0,.449,1.047l.224.224c.075.075.15.075.224.15s.15.075.3.075h.523Zm43.071,27.443a1.484,1.484,0,0,0-.449-2.094L97.778,90a1.514,1.514,0,0,0-1.645,2.542l29.237,19.516a1.507,1.507,0,0,0,.823.224A1.564,1.564,0,0,0,127.464,111.606Zm-17.8-52.642c.075,0,.224-.075.3-.075.075-.075.15-.075.224-.15s.15-.15.224-.15c.075-.075.15-.15.15-.224.075-.075.075-.15.15-.224s.075-.15.075-.3v-.6c0-.075-.075-.224-.075-.3-.075-.075-.075-.15-.15-.224l-.224-.224c-.075-.075-.15-.15-.224-.15-.075-.075-.15-.075-.224-.15-.075,0-.15-.075-.3-.075a.826.826,0,0,0-.6,0c-.075,0-.224.075-.3.075-.075.075-.15.075-.3.15-.075.075-.15.15-.224.15l-.224.224c-.075.075-.075.15-.15.224s-.075.15-.075.3v.3a1.358,1.358,0,0,0,.449,1.047c.075.075.15.15.224.15.075.075.15.075.3.15.075.075.15.075.3.075h.673Zm26.1,38.136a1.551,1.551,0,0,0,.449-2.094L119.164,69.433a1.514,1.514,0,1,0-2.542,1.645L133.67,96.651a1.469,1.469,0,0,0,1.271.673A1.507,1.507,0,0,0,135.764,97.1Zm67.373,100.8a1.551,1.551,0,0,0,.449-2.094l-17.124-25.573a1.514,1.514,0,0,0-2.542,1.645l17.124,25.573a1.469,1.469,0,0,0,1.271.673A1.507,1.507,0,0,0,203.137,197.9Zm8,13.011c.075,0,.224-.075.3-.075.075-.075.15-.075.3-.15.075-.075.15-.15.224-.15a1.476,1.476,0,0,0,.449-1.047v-.3c0-.075-.075-.224-.075-.3s-.075-.15-.15-.3c-.075-.075-.15-.15-.15-.224a1.476,1.476,0,0,0-1.047-.449,1.358,1.358,0,0,0-1.047.449l-.224.224c-.075.075-.075.15-.15.3-.075.075-.075.15-.075.3v.6c0,.075.075.224.075.3.075.075.075.15.15.3.075.075.15.15.15.224.075.075.15.15.224.15.075.075.15.075.224.15s.15.075.3.075h.3A.275.275,0,0,1,211.138,210.909Zm-15.852-99.153,28.863-19.292a1.514,1.514,0,1,0-1.645-2.542L193.64,109.214a1.551,1.551,0,0,0-.449,2.094,1.469,1.469,0,0,0,1.271.673A1.7,1.7,0,0,0,195.286,111.756Zm41.052-27.592c.075,0,.224-.075.3-.075.075-.075.15-.075.224-.15l.224-.224a1.476,1.476,0,0,0,.449-1.047v-.3c0-.075-.075-.224-.075-.3-.075-.075-.075-.15-.15-.224l-.224-.224-.224-.224c-.075-.075-.15-.075-.224-.15s-.15-.075-.3-.075a.826.826,0,0,0-.6,0c-.075,0-.224.075-.3.075-.075.075-.15.075-.3.15l-.224.224c-.075.075-.15.15-.15.224-.075.075-.075.15-.15.224s-.075.15-.075.3v.3a1.476,1.476,0,0,0,.449,1.047l.224.224c.075.075.15.075.3.15.075.075.15.075.3.075h.523ZM84.393,185.709c.075,0,.224-.075.3-.075.075-.075.15-.075.3-.15.075-.075.15-.15.224-.15.075-.075.15-.15.15-.224.075-.075.075-.15.15-.224s.075-.15.075-.3v-.3a1.358,1.358,0,0,0-.449-1.047c-.075-.075-.15-.15-.224-.15-.075-.075-.15-.075-.3-.15-.075-.075-.15-.075-.3-.075a1.621,1.621,0,0,0-1.346.374c-.075.075-.15.15-.15.224-.075.075-.075.15-.15.3-.075.075-.075.15-.075.3v.6c0,.075.075.224.075.3.075.075.075.15.15.224s.15.15.15.224a1.476,1.476,0,0,0,1.047.449C84.244,185.709,84.318,185.709,84.393,185.709ZM98,176.736l25.349-16.9a1.514,1.514,0,1,0-1.645-2.542l-25.349,16.9a1.551,1.551,0,0,0-.449,2.094,1.469,1.469,0,0,0,1.271.673A1.507,1.507,0,0,0,98,176.736ZM178.237,45.28c.075,0,.224-.075.3-.075s.15-.075.224-.15.15-.15.224-.15l.224-.224c.075-.075.075-.15.15-.3.075-.075.075-.15.075-.3v-.6c0-.075-.075-.224-.075-.3-.075-.075-.075-.15-.15-.224l-.224-.224c-.075-.075-.15-.15-.224-.15-.075-.075-.15-.075-.224-.15s-.15-.075-.3-.075a.826.826,0,0,0-.6,0c-.075,0-.224.075-.3.075-.075.075-.15.075-.3.15-.075.075-.15.15-.224.15-.075.075-.15.15-.15.224-.075.075-.075.15-.15.224s-.075.15-.075.3v.6c0,.075.075.224.075.3.075.075.075.15.15.3.075.075.15.15.15.224a1.476,1.476,0,0,0,1.047.449A.674.674,0,0,0,178.237,45.28ZM173.75,72.648l2.692-13.385a1.525,1.525,0,1,0-2.991-.6L170.759,72.05a1.533,1.533,0,0,0,1.2,1.795h.3A1.594,1.594,0,0,0,173.75,72.648ZM146.756,208.217l5.982-30.135a1.525,1.525,0,0,0-2.991-.6l-5.982,30.135a1.533,1.533,0,0,0,1.2,1.795h.3A1.394,1.394,0,0,0,146.756,208.217Zm-4.187,16.3c.075,0,.224-.075.3-.075.075-.075.15-.075.3-.15.075-.075.15-.15.224-.15.075-.075.15-.15.15-.224.075-.075.075-.15.15-.224s.075-.15.075-.3v-.6c0-.075-.075-.224-.075-.3s-.075-.15-.15-.224-.15-.15-.15-.224c-.075-.075-.15-.15-.224-.15-.075-.075-.15-.075-.3-.15-.075-.075-.15-.075-.3-.075a.826.826,0,0,0-.6,0c-.075,0-.224.075-.3.075-.075.075-.15.075-.224.15s-.15.15-.224.15a1.476,1.476,0,0,0-.449,1.047,1.358,1.358,0,0,0,.449,1.047c.075.075.15.15.224.15.075.075.15.075.224.15s.15.075.3.075h.3C142.344,224.593,142.494,224.518,142.569,224.518Zm93.544-75.972a1.533,1.533,0,0,0-1.2-1.795l-20.638-4.113a1.525,1.525,0,0,0-.6,2.991l20.638,4.113h.3A1.512,1.512,0,0,0,236.113,148.546Zm-146.859.6,17.722-3.514a1.525,1.525,0,1,0-.6-2.991l-17.722,3.514a1.533,1.533,0,0,0-1.2,1.795,1.456,1.456,0,0,0,1.5,1.2Zm-18.47-32.079c.075,0,.224-.075.3-.075.075-.075.15-.075.3-.15.075-.075.15-.15.224-.15.075-.075.15-.15.15-.224.075-.075.075-.15.15-.224s.075-.15.075-.3v-.3a1.358,1.358,0,0,0-.449-1.047,1.476,1.476,0,0,0-1.047-.449,1.358,1.358,0,0,0-1.047.449,1.476,1.476,0,0,0-.449,1.047v.3c0,.075.075.224.075.3.075.075.075.15.15.224l.224.224c.075.075.15.15.224.15.075.075.15.075.224.15s.15.075.3.075h.3A.227.227,0,0,0,70.784,117.065Zm48.529,8.3a1.533,1.533,0,0,0-1.2-1.795l-15.852-3.141a1.525,1.525,0,1,0-.6,2.991l15.852,3.141h.3A1.528,1.528,0,0,0,119.313,125.365Zm42.323-66.027V23.6a1.5,1.5,0,0,0-2.991,0V59.338a1.5,1.5,0,0,0,2.991,0Zm0,183.948V178.605a1.5,1.5,0,0,0-2.991,0v64.681a1.5,1.5,0,0,0,2.991,0Zm75.075-109.845a1.5,1.5,0,0,0-1.5-1.5H207.773a1.5,1.5,0,1,0,0,2.991h27.443A1.5,1.5,0,0,0,236.711,133.441Zm-45.389-29.088L238.88,56.8a1.533,1.533,0,0,0-2.168-2.168l-47.557,47.557a1.534,1.534,0,0,0,0,2.168,1.476,1.476,0,0,0,1.047.449A1.649,1.649,0,0,0,191.322,104.353ZM83.5,212.18l45.688-45.688a1.533,1.533,0,0,0-2.169-2.168L81.327,210.011a1.534,1.534,0,0,0,0,2.169,1.476,1.476,0,0,0,1.047.449A1.522,1.522,0,0,0,83.5,212.18Zm155.384,0a1.534,1.534,0,0,0,0-2.169L197.6,168.735a1.533,1.533,0,0,0-2.169,2.169l41.276,41.276a1.476,1.476,0,0,0,1.047.449A1.522,1.522,0,0,0,238.88,212.18ZM131.427,104.727a1.534,1.534,0,0,0,0-2.168L83.5,54.7a1.533,1.533,0,0,0-2.168,2.168L129.259,104.8a1.476,1.476,0,0,0,1.047.449A1.742,1.742,0,0,0,131.427,104.727Zm9.721-17.049a1.518,1.518,0,0,0,.823-1.944L119.463,31.372a1.493,1.493,0,1,0-2.767,1.122L139.2,86.856a1.628,1.628,0,0,0,1.944.823Zm61.54,148.654a1.518,1.518,0,0,0,.823-1.944L178.76,174.642a1.493,1.493,0,1,0-2.767,1.122l24.751,59.746a1.467,1.467,0,0,0,1.421.9A.657.657,0,0,0,202.688,236.332Zm-3.589-117.4,36.64-15.179a1.493,1.493,0,1,0-1.122-2.767l-36.64,15.179a1.518,1.518,0,0,0-.823,1.944,1.467,1.467,0,0,0,1.421.9A1.273,1.273,0,0,0,199.1,118.935ZM59.194,176.886,69.962,172.4a1.493,1.493,0,0,0-1.122-2.767l-10.768,4.487a1.518,1.518,0,0,0-.823,1.944,1.628,1.628,0,0,0,1.944.823ZM181.3,86.108l22.208-53.614a1.493,1.493,0,1,0-2.767-1.122L178.536,84.986a1.518,1.518,0,0,0,.823,1.944,1.76,1.76,0,0,0,.6.15A1.437,1.437,0,0,0,181.3,86.108Zm-61.839,149.4,24.751-59.746a1.493,1.493,0,1,0-2.767-1.122L116.7,234.388a1.518,1.518,0,0,0,.823,1.944,1.76,1.76,0,0,0,.6.15A1.513,1.513,0,0,0,119.463,235.51Zm143.569-59.447a1.518,1.518,0,0,0-.823-1.944L239.478,164.7a1.493,1.493,0,0,0-1.122,2.767l22.732,9.422a1.38,1.38,0,0,0,1.944-.823ZM116.248,115.27a1.518,1.518,0,0,0-.823-1.944L59.119,90A1.493,1.493,0,1,0,58,92.763l56.306,23.33a1.76,1.76,0,0,0,.6.15A1.513,1.513,0,0,0,116.248,115.27Zm7.253,2.991a1.518,1.518,0,0,0-.823-1.944l-7.253-2.991a1.493,1.493,0,0,0-1.122,2.767l7.253,2.991a1.76,1.76,0,0,0,.6.15A1.437,1.437,0,0,0,123.5,118.262Zm-9.123,15.179a1.5,1.5,0,0,0-1.5-1.5H91.946a1.5,1.5,0,1,0,0,2.991h20.937A1.5,1.5,0,0,0,114.378,133.441Zm-57.278,0a1.5,1.5,0,0,0-1.5-1.5H50.3a1.5,1.5,0,1,0,0,2.991H55.6A1.5,1.5,0,0,0,57.1,133.441Z" fill="url(#radial-gradient)"/>
  </g>
</svg>
