<svg xmlns="http://www.w3.org/2000/svg" width="600" height="143.809" viewBox="0 0 600 143.809">
  <g id="creativesoncall-white" transform="translate(-58.904 -53.717)">
    <path id="Path_218" data-name="Path 218" d="M176.995,144.96a49.01,49.01,0,0,0-.067-38.794L196.057,95.41l-.034-.074a71.9,71.9,0,0,0-65.214-41.619c-38.178,0-71.9,30.39-71.9,71.9a71.9,71.9,0,0,0,137.04,30.453l-19.1-10.74Zm5.317,14.6a61.7,61.7,0,1,1-.25-68.268c.055.081.33.534.384.616L172.221,97.66c-.061-.086-.323-.432-.385-.518a49.052,49.052,0,1,0,.212,56.65ZM131.88,148.235a22.527,22.527,0,0,0,16.845-7.557l6.043,3.377,8.34,4.709a38.851,38.851,0,1,1,.154-46.067L148.9,110.772a22.6,22.6,0,1,0-17.024,37.464Zm13.272-20.718c-.005.035-.018.124-.024.161-.68,4.347-5.348,11.1-13.248,11.1a13.155,13.155,0,1,1,0-26.31c8.337,0,12.262,7.081,13.377,11.288.01.037.039.155.049.192L167.975,111.2c.017.045.126.3.145.346a38.829,38.829,0,0,1-.043,28.264c-.017.042-.205.43-.222.472Z" fill="#fff"/>
    <g id="Group_120" data-name="Group 120" transform="translate(644.533 90.835)">
      <path id="Path_219" data-name="Path 219" d="M643.8,91.129h-2.32v6.6h-.9v-6.6h-2.32v-.692H643.8Zm8.83,6.6h-.9V91.2h-.034l-2.51,6.528h-.588L646.083,91.2h-.035v6.528h-.9v-7.29h1.662l2.077,5.386h.035l2.043-5.386h1.662Z" transform="translate(-638.256 -90.437)" fill="#fff"/>
    </g>
    <g id="Group_121" data-name="Group 121" transform="translate(209.683 91.991)">
      <path id="Path_220" data-name="Path 220" d="M411.96,141.826a11.326,11.326,0,0,1-7.527,3.08c-6,0-9.945-3.7-10.3-9.662l-.1-2.271h10.71c7.184,0,11.645-3.357,11.645-8.758,0-6.567-5.292-11.333-12.582-11.333-11.353,0-15.4,8.4-15.4,16.253v4.3c0,10.131,5.989,16.177,16.021,16.177a14.678,14.678,0,0,0,10.8-4.271l.326-.334-3.243-3.513ZM404.9,128.739H394.134v-.384c0-6.591,3.8-10.849,9.676-10.849,4.378,0,7.1,2.362,7.1,6.162C410.909,126.748,408.551,128.739,404.9,128.739Z" transform="translate(-206.113 -91.35)" fill="#fff"/>
      <path id="Path_221" data-name="Path 221" d="M346.881,143.564a7.331,7.331,0,0,1-4.012,1.124c-4.678,0-7.256-2.6-7.256-7.333V118.383h9.918v-4.858h-9.918v-9.583l-5.406,1.3v31.8c0,8.759,3.784,12.664,12.271,12.664a12.558,12.558,0,0,0,6.633-1.772l.382-.234-2.147-4.429Z" transform="translate(-206.744 -91.447)" fill="#fff"/>
      <path id="Path_222" data-name="Path 222" d="M348.935,113.441l-.514-.023v4.858l.4.08c1.957.385,2.651.9,2.651,3.005v27.772h5.484v-28.2C356.951,116.055,354.4,113.677,348.935,113.441Z" transform="translate(-206.546 -91.344)" fill="#fff"/>
      <path id="Path_223" data-name="Path 223" d="M384.567,113.422l-10.132,28.056-7.448-23c-1.07-3.143-2.683-4.877-8.124-5.041l-.506-.018v4.863l.421.059a4.24,4.24,0,0,1,3.46,3.087l9.792,27.383.117.324H376.3l14.149-35.711Z" transform="translate(-206.439 -91.344)" fill="#fff"/>
      <path id="Path_224" data-name="Path 224" d="M430.775,127.4c-.628-.154-1.224-.293-1.792-.425-4.178-.978-6.7-1.57-6.7-4.473,0-2.984,3.033-4.914,7.725-4.914a8.977,8.977,0,0,1,7.606,3.566l.262.358,4.215-2.448-.26-.429c-2.17-3.6-6.707-5.75-12.135-5.75-6.1,0-12.662,3.106-12.662,9.928,0,6.329,5.341,7.625,11.523,9.126l.449.109c4.558,1.139,9.272,2.316,9.272,6.541,0,4.6-4.313,6.242-8.35,6.242-4.334,0-7.825-1.922-9.577-5.269l-.228-.439-4.551,2.376.22.434c2.452,4.88,7.575,7.678,14.058,7.678,8.547,0,14.068-4.357,14.068-11.1C443.919,131.9,438.889,129.355,430.775,127.4Z" transform="translate(-205.819 -91.35)" fill="#fff"/>
      <path id="Path_225" data-name="Path 225" d="M624.1,144.467a5.927,5.927,0,0,1-2.341.514c-3.565,0-5.693-2.216-5.693-5.929V91.581l-5.483,1.374v45.707c0,7.836,3.272,11.178,10.942,11.178a10.16,10.16,0,0,0,4.132-.949l.4-.182L624.6,144.25Z" transform="translate(-203.706 -91.581)" fill="#fff"/>
      <circle id="Ellipse_15" data-name="Ellipse 15" cx="3.678" cy="3.678" r="3.678" transform="translate(143.05 7.989)" fill="#fff"/>
      <path id="Path_226" data-name="Path 226" d="M473.318,98.027a25.46,25.46,0,0,0-25.629,25.837c0,14.632,11.5,26.535,25.629,26.535s25.632-11.9,25.632-26.535A25.461,25.461,0,0,0,473.318,98.027Zm20.464,25.837c0,12.1-8.989,21.577-20.464,21.577s-20.462-9.479-20.462-21.577c0-11.707,8.988-20.878,20.462-20.878S493.782,112.156,493.782,123.864Z" transform="translate(-205.471 -91.511)" fill="#fff"/>
      <path id="Path_227" data-name="Path 227" d="M248.816,138.834a22.038,22.038,0,0,1-15.713,6.607c-11.171,0-19.721-9.119-19.889-21.2.156-12.114,8.707-21.25,19.889-21.25a22.258,22.258,0,0,1,15.711,6.6l.767.883,3.221-3.7-.567-.673A26.484,26.484,0,0,0,233.1,98.027c-14.038,0-25.035,11.538-25.035,26.267,0,14.64,11,26.106,25.035,26.106a26.684,26.684,0,0,0,19.137-8.08l.562-.667-3.221-3.7Z" transform="translate(-208.067 -91.511)" fill="#fff"/>
      <path id="Path_228" data-name="Path 228" d="M605.575,140.621V122.814c0-6.028-4.912-9.771-12.818-9.771-5.771,0-10.55,2.823-12.784,7.554l-.238.5,4.53,1.556.2-.375a9.027,9.027,0,0,1,8.3-4.842c4.786,0,7.646,1.954,7.646,5.226,0,4.184-4.733,5.232-9.313,6.246l-.151.033c-.855.19-1.827.406-2.779.652-6.2,1.533-9.366,4.446-9.962,9.131l-.026.085-.027.03a22.28,22.28,0,0,1-15.709,6.6c-11.173,0-19.723-9.119-19.89-21.2.155-12.114,8.706-21.25,19.89-21.25a22.523,22.523,0,0,1,15.707,6.6l.769.876,3.221-3.692-.568-.674a26.307,26.307,0,0,0-19.129-8.075c-14.04,0-25.037,11.538-25.037,26.267,0,14.64,11,26.106,25.037,26.106a26.59,26.59,0,0,0,16.524-5.7c1.57,3.267,5.026,5.065,9.734,5.065a17.4,17.4,0,0,0,6.224-1.1,12.347,12.347,0,0,0,6.167-4.851c.706,4.515,4.179,5.3,7.487,5.469l.518.024v-4.942l-.414-.064A3.462,3.462,0,0,1,605.575,140.621Zm-5.094-10.663v4.1a11.16,11.16,0,0,1-11.4,11.16c-3.156,0-5.535-2.146-5.535-4.992,0-3.316,2.466-5.517,7.332-6.544a29.626,29.626,0,0,0,7.544-2.418l.158-.079A11.253,11.253,0,0,0,600.481,129.957Z" transform="translate(-204.499 -91.511)" fill="#fff"/>
      <path id="Path_229" data-name="Path 229" d="M270.338,118.28v-4.858h-.633c-2.913,0-6.915.511-9.432,2.947a12.221,12.221,0,0,0-1.909,2.336c-.041.073-.082.143-.12.212l-.041.073a8.138,8.138,0,0,0-.43.717,8.257,8.257,0,0,0-.553-2.5c-.035-.087-.07-.173-.11-.263l-.105-.219c-.073-.139-.146-.274-.229-.407l-.055-.081c-1.1-1.669-3.237-2.634-6.188-2.792l-.518-.027v4.858l.4.08a3.369,3.369,0,0,1,2.649,3.588v27.188h5.483v-13.52c0-8.57,1.28-17.333,10.771-17.333Z" transform="translate(-207.613 -91.344)" fill="#fff"/>
      <path id="Path_230" data-name="Path 230" d="M530.221,140.618V124.607c0-7.123-4.54-11.725-11.568-11.725-.172,0-.03,0-.2.007a12.7,12.7,0,0,0-11.34,6.668c-.019-.131-.037-.251-.044-.292-.424-3.323-2.787-5.3-6.832-5.708l-.543-.056v5.036l.394.08a2.988,2.988,0,0,1,1.53.75,2.355,2.355,0,0,1,.6,1.5c.009.059.022.433.022.634v27.636h5.486v-13.91c0-4.325,0-17.489,10.458-17.489,3.919,0,6.552,2.76,6.552,6.868v17.1c0,5.09,2.1,7.238,8.024,7.418l.506.018V144.29l-.384-.088C530.817,143.743,530.221,143.481,530.221,140.618Z" transform="translate(-204.907 -91.35)" fill="#fff"/>
    </g>
    <path id="Path_231" data-name="Path 231" d="M327.977,144.143a3.462,3.462,0,0,1-3.1-3.683V122.653c0-6.028-4.912-9.771-12.818-9.771-5.771,0-10.55,2.823-12.784,7.554l-.238.5,4.53,1.556.2-.375a9.027,9.027,0,0,1,8.3-4.842c4.786,0,7.646,1.954,7.646,5.226,0,4.184-4.733,5.232-9.313,6.246l-.151.033c-.855.19-1.827.407-2.779.652-6.165,1.524-9.333,4.414-9.953,9.056,0,.024-.057.576-.061.6,0,0-.093.1-.156.161-.883.867-6.548,5.66-12.487,5.66-6,0-9.944-3.7-10.3-9.664l-.1-2.27h10.71c7.183,0,11.645-3.356,11.645-8.757,0-6.567-5.292-11.333-12.583-11.333-11.352,0-15.4,8.4-15.4,16.253v4.3c0,10.131,5.989,16.177,16.02,16.177,6.188,0,11.323-3.4,13.455-5.065,1.57,3.267,5.026,5.065,9.734,5.065a17.4,17.4,0,0,0,6.224-1.1,12.348,12.348,0,0,0,6.167-4.851c.706,4.515,4.179,5.3,7.487,5.469l.518.024v-4.942Zm-53.47-15.788c0-6.591,3.8-10.849,9.676-10.849,4.379,0,7.1,2.362,7.1,6.162,0,3.08-2.358,5.071-6.007,5.071H274.507Zm45.276,5.546a11.16,11.16,0,0,1-11.4,11.16c-3.156,0-5.535-2.146-5.535-4.992,0-3.316,2.465-5.517,7.332-6.544a29.627,29.627,0,0,0,7.544-2.418l.158-.079a11.252,11.252,0,0,0,1.9-1.232Z" transform="translate(2.274 0.641)" fill="#fff"/>
    <path id="Path_232" data-name="Path 232" d="M640.071,144.2l-.492.214a5.861,5.861,0,0,1-2.324.51c-3.535,0-5.645-2.2-5.645-5.881V91.959l-5.44,1.363v45.339c0,7.773,3.246,11.088,10.854,11.088a10.121,10.121,0,0,0,4.1-.941l.4-.181Z" transform="translate(6.146 0.414)" fill="#fff"/>
  </g>
</svg>
