<svg xmlns="http://www.w3.org/2000/svg" width="600" height="94.888" viewBox="0 0 600 94.888">
  <g id="fusionalliance-color" transform="translate(-17.891 -11.646)">
    <g id="Group_104" data-name="Group 104" transform="translate(152.201 33.914)">
      <g id="Group_102" data-name="Group 102">
        <path id="Path_158" data-name="Path 158" d="M96.224,31.811V44.022H115.5a.384.384,0,0,1,.384.384v7.872a.383.383,0,0,1-.384.384H96.224v19.77a.383.383,0,0,1-.384.384H86.884a.384.384,0,0,1-.384-.384V23.661a.5.5,0,0,1,.5-.5h31.925a.384.384,0,0,1,.384.384v7.879a.384.384,0,0,1-.384.384Z" transform="translate(-86.5 -22.884)"/>
        <path id="Path_159" data-name="Path 159" d="M127.829,66.3a.384.384,0,0,1-.384-.384v-2.96a12.507,12.507,0,0,1-9.1,3.763,11.89,11.89,0,0,1-8.6-3.2c-2.936-2.931-3.7-6.347-3.7-10.321V30.351a.384.384,0,0,1,.384-.384h8.324a.384.384,0,0,1,.384.384V51.943c0,4.947,3.148,6.621,6.018,6.621s6.086-1.674,6.086-6.621V30.351a.384.384,0,0,1,.384-.384h8.322a.385.385,0,0,1,.386.384V65.917a.385.385,0,0,1-.386.384Z" transform="translate(-67.785 -16.369)"/>
        <path id="Path_160" data-name="Path 160" d="M140.457,66.922c-5.614,0-10.7-.6-15.234-4.947a.4.4,0,0,1-.008-.566l5.4-5.385a.376.376,0,0,1,.525,0c2.968,2.768,6.74,3.162,9.457,3.162,3.142,0,6.431-1.047,6.431-3.768,0-1.811-.977-3.068-3.849-3.348l-5.732-.552c-6.574-.632-10.63-3.487-10.63-10.185,0-7.533,6.642-11.575,14.056-11.575,5.5,0,10.148.92,13.615,3.974a.389.389,0,0,1,.025.564l-4.82,4.865c-.4.4-.6.4-.756.278-2.1-1.705-5.186-2.226-8.206-2.226-3.639,0-5.174,1.682-5.174,3.49,0,1.329.556,2.864,3.778,3.138l5.736.562c7.2.693,10.845,4.528,10.845,10.669C155.922,63.1,149.066,66.922,140.457,66.922Z" transform="translate(-49.535 -16.572)"/>
        <path id="Path_161" data-name="Path 161" d="M144.771,30.031V23.407a.385.385,0,0,1,.384-.386h8.529a.385.385,0,0,1,.384.386v6.625a.384.384,0,0,1-.384.384h-8.529A.384.384,0,0,1,144.771,30.031Zm.137,42.537V37a.385.385,0,0,1,.386-.384h8.326a.385.385,0,0,1,.386.384V72.568a.385.385,0,0,1-.386.384h-8.326A.385.385,0,0,1,144.908,72.568Z" transform="translate(-30.699 -23.021)"/>
        <path id="Path_162" data-name="Path 162" d="M180.7,62.465a15.128,15.128,0,0,1-11.331,4.457,14.97,14.97,0,0,1-11.26-4.457c-3.289-3.42-4.125-7.537-4.125-14.167,0-6.548.836-10.665,4.125-14.077a14.958,14.958,0,0,1,11.26-4.465A15.115,15.115,0,0,1,180.7,34.22c3.293,3.412,4.131,7.529,4.131,14.077C184.834,54.928,184,59.045,180.7,62.465Zm-7.067-22.947a5.745,5.745,0,0,0-4.264-1.605,5.585,5.585,0,0,0-4.193,1.605c-1.889,1.881-2.1,5.021-2.1,8.78s.213,6.981,2.1,8.862a5.565,5.565,0,0,0,4.193,1.607,5.724,5.724,0,0,0,4.264-1.607c1.889-1.881,2.1-5.092,2.1-8.862S175.526,41.4,173.637,39.518Z" transform="translate(-21.872 -16.572)"/>
        <path id="Path_163" data-name="Path 163" d="M195.862,66.5a.384.384,0,0,1-.384-.384V44.539c0-4.951-3.156-6.627-6.027-6.627s-6.078,1.676-6.078,6.627V66.12a.384.384,0,0,1-.384.384h-8.324a.384.384,0,0,1-.384-.384V30.554a.384.384,0,0,1,.384-.384h8.112a.384.384,0,0,1,.384.384v2.968a12.476,12.476,0,0,1,9.1-3.766,11.845,11.845,0,0,1,8.6,3.209c2.938,2.933,3.7,6.341,3.7,10.323V66.12a.384.384,0,0,1-.384.384Z" transform="translate(-2.439 -16.572)"/>
      </g>
      <g id="Group_103" data-name="Group 103" transform="translate(231.028 0.049)">
        <path id="Path_164" data-name="Path 164" d="M239.652,72.63l-3.9-11H214l-3.9,11a.389.389,0,0,1-.366.258H204.9a.39.39,0,0,1-.366-.523l18.036-49.029a.392.392,0,0,1,.366-.254h3.939a.39.39,0,0,1,.366.254l17.973,49.031a.388.388,0,0,1-.366.521h-4.833A.389.389,0,0,1,239.652,72.63ZM224.974,30.708l-9.367,26.3h18.605Z" transform="translate(-204.515 -23.011)"/>
        <path id="Path_165" data-name="Path 165" d="M237.116,72.889c-6.02,0-8.747-3.917-8.747-9.16V23.473a.389.389,0,0,1,.39-.39h4.26a.389.389,0,0,1,.388.39V63.52c0,3.359,1.116,5.037,4.618,5.037h2.337a.386.386,0,0,1,.388.388V72.5a.386.386,0,0,1-.388.388Z" transform="translate(-181.672 -23.011)"/>
        <path id="Path_166" data-name="Path 166" d="M247.122,72.889c-6.02,0-8.749-3.917-8.749-9.16V23.473a.388.388,0,0,1,.388-.39h4.264a.389.389,0,0,1,.388.39V63.52c0,3.359,1.12,5.037,4.618,5.037h2.341a.388.388,0,0,1,.39.388V72.5a.388.388,0,0,1-.39.388Z" transform="translate(-172.092 -23.011)"/>
        <path id="Path_167" data-name="Path 167" d="M248.307,28.328V23.436a.389.389,0,0,1,.39-.39h4.888a.388.388,0,0,1,.388.39v4.892a.387.387,0,0,1-.388.388H248.7A.389.389,0,0,1,248.307,28.328Zm.284,44.209V38.9a.389.389,0,0,1,.388-.39h4.26a.389.389,0,0,1,.39.39V72.537a.388.388,0,0,1-.39.388h-4.26A.387.387,0,0,1,248.591,72.537Z" transform="translate(-162.579 -23.046)"/>
        <path id="Path_168" data-name="Path 168" d="M278.126,65.565a.388.388,0,0,1-.39-.388v-2.9c-2.8,2.8-5.319,3.708-9.939,3.708-4.751,0-7.552-.906-9.714-3.14a9.9,9.9,0,0,1-2.594-7c0-6.016,4.193-9.937,11.9-9.937h10.348V42.618c0-5.033-2.521-7.547-8.815-7.547-4.225,0-6.454.965-8.42,3.565a.386.386,0,0,1-.57.063l-2.839-2.615a.409.409,0,0,1-.037-.546c3.017-3.745,6.478-4.806,11.936-4.806,9.232,0,13.778,3.986,13.778,11.472V65.177a.386.386,0,0,1-.388.388Zm-.39-15.88h-9.657c-5.174,0-7.689,2.1-7.689,6.094,0,3.978,2.449,5.869,7.9,5.869,2.936,0,5.528-.211,7.693-2.3,1.19-1.126,1.752-3.087,1.752-5.951Z" transform="translate(-155.7 -15.687)"/>
        <path id="Path_169" data-name="Path 169" d="M297.5,65.565a.387.387,0,0,1-.388-.388V44.37c0-6.084-3.289-9.164-8.461-9.164s-8.537,3.152-8.537,9.164V65.177a.387.387,0,0,1-.388.388h-4.264a.388.388,0,0,1-.39-.388V31.545a.389.389,0,0,1,.39-.39h4.264a.389.389,0,0,1,.388.39V34.93a12.392,12.392,0,0,1,9.651-4.2,12.057,12.057,0,0,1,8.815,3.216c2.449,2.38,3.577,5.6,3.577,9.592V65.177a.388.388,0,0,1-.39.388Z" transform="translate(-136.951 -15.687)"/>
        <path id="Path_170" data-name="Path 170" d="M308.834,65.984c-8.678,0-15.256-5.869-15.256-17.624s6.578-17.628,15.256-17.628c4.628,0,7.609,1.2,11.055,4.808a.4.4,0,0,1-.01.564l-2.856,2.688a.392.392,0,0,1-.552-.027c-2.467-2.643-4.459-3.557-7.637-3.557a9.335,9.335,0,0,0-7.979,3.917c-1.6,2.24-2.236,4.9-2.236,9.236s.632,6.993,2.236,9.23a9.321,9.321,0,0,0,7.979,3.917c3.177,0,5.168-.977,7.633-3.62a.392.392,0,0,1,.556-.025l2.862,2.743a.4.4,0,0,1,.008.562C316.447,64.794,313.464,65.984,308.834,65.984Z" transform="translate(-119.226 -15.687)"/>
        <path id="Path_171" data-name="Path 171" d="M314.983,49.685c0,7.558,3.563,11.894,10.144,11.894A11.184,11.184,0,0,0,333.9,57.92a.391.391,0,0,1,.527-.02l2.844,2.49a.4.4,0,0,1,.01.583,15.644,15.644,0,0,1-12.29,5.01c-9.093,0-15.04-5.454-15.04-17.624,0-11.125,5.385-17.628,14.128-17.628,8.884,0,14.14,6.437,14.14,16.652v2.036c0,.139-.023.266-.28.266Zm17.133-9.514a8.837,8.837,0,0,0-16.084,0,14.517,14.517,0,0,0-1.049,5.74h18.182A14.312,14.312,0,0,0,332.116,40.171Z" transform="translate(-103.552 -15.687)"/>
      </g>
    </g>
    <g id="Group_105" data-name="Group 105" transform="translate(17.891 11.646)">
      <path id="Path_172" data-name="Path 172" d="M42.154,40.768a14.56,14.56,0,1,0-12.088-6.423A14.505,14.505,0,0,0,42.154,40.768Z" transform="translate(-8.61 -11.646)" fill="#004999"/>
      <path id="Path_173" data-name="Path 173" d="M61.577,40.768a14.561,14.561,0,1,0-12.086-6.423A14.505,14.505,0,0,0,61.577,40.768Z" transform="translate(9.991 -11.646)"/>
      <path id="Path_174" data-name="Path 174" d="M61.568,74.363A14.56,14.56,0,1,0,49.48,67.942,14.505,14.505,0,0,0,61.568,74.363Z" transform="translate(9.981 20.525)" fill="#004999"/>
      <path id="Path_175" data-name="Path 175" d="M71.249,57.56a14.561,14.561,0,1,0-12.086-6.421A14.49,14.49,0,0,0,71.249,57.56Z" transform="translate(19.252 4.434)"/>
      <path id="Path_176" data-name="Path 176" d="M51.856,57.56a14.56,14.56,0,1,0-12.088-6.421A14.49,14.49,0,0,0,51.856,57.56Z" transform="translate(0.68 4.434)" fill="#004999"/>
      <path id="Path_177" data-name="Path 177" d="M63.472,67.745a14.513,14.513,0,0,0-8.179-5.867c.006.014,0,.008,0,0C48.461,59.993,43.22,57.843,46.321,47.4c.057-.178.108-.36.157-.542.023-.09.055-.208.051-.208.074-.29.157-.578.215-.873a14.566,14.566,0,1,0-17.75,11.364c9.953,2.848,10.573,6.423,8.361,14.954,0,.025-.012.051-.012.065a14.553,14.553,0,1,0,26.128-4.412Z" transform="translate(-17.891 4.434)"/>
    </g>
  </g>
</svg>
