<svg xmlns="http://www.w3.org/2000/svg" width="600" height="194.896" viewBox="0 0 600 194.896">
  <g id="openfield-white" transform="translate(-522 -510.264)">
    <g id="Group_138" data-name="Group 138" transform="translate(522 510.264)">
      <path id="Path_314" data-name="Path 314" d="M574.69,529.714a8.28,8.28,0,0,0-8.208,8.217v32.983a8.273,8.273,0,0,0,16.546,0V537.931A8.31,8.31,0,0,0,574.69,529.714Z" transform="translate(-381.14 -448.672)" fill="#fff"/>
      <path id="Path_315" data-name="Path 315" d="M563.752,524.759a8.279,8.279,0,0,0-8.192,8.225V586.6a8.269,8.269,0,0,0,16.537,0V532.984A8.314,8.314,0,0,0,563.752,524.759Z" transform="translate(-415.727 -464.363)" fill="#fff"/>
      <path id="Path_316" data-name="Path 316" d="M585.623,529.714a8.288,8.288,0,0,0-8.221,8.217v8.6a.7.7,0,0,0,.708.708h15.133a.71.71,0,0,0,.708-.708v-8.6A8.3,8.3,0,0,0,585.623,529.714Z" transform="translate(-346.56 -448.672)" fill="#fff"/>
      <path id="Path_317" data-name="Path 317" d="M1102.667,510.264H541.321A19.379,19.379,0,0,0,522,529.593V685.839a19.374,19.374,0,0,0,19.321,19.321H796.15c37.379-.9,40.979-20.9,40.979-40.617l.033-72.263v-.008h-4.4a.715.715,0,0,1-.717-.708V583.7a.717.717,0,0,1,.717-.717h4.417v-3.021a17.5,17.5,0,0,1,17.5-17.513h22.866s.688,9.3-7.517,9.3h-15.35a8.205,8.205,0,0,0-8.2,8.213v3.021H858.6a.712.712,0,0,1,.721.717v7.863a.711.711,0,0,1-.721.708H846.479v.008l.029,72.263c0,19.708,3.375,39.729,41.038,40.617h215.121A19.39,19.39,0,0,0,1122,685.839V529.593A19.4,19.4,0,0,0,1102.667,510.264ZM687.554,632.505a17.46,17.46,0,1,1-34.921,0V578.885a17.46,17.46,0,1,1,34.921,0Zm45.513,0a17.633,17.633,0,0,1-25.725,15.45v3.221l-.054,0v17.6a.717.717,0,0,1-.708.713h-7.725a.716.716,0,0,1-.717-.713V583.7a.714.714,0,0,1,.717-.717h3.933c.392,0,.671.179,1.033.717.333.492.354.521,1.163,1.858a17.172,17.172,0,0,1,10.567-3.537,17.438,17.438,0,0,1,17.517,17.5Zm45.512-18.65v3.463a.72.72,0,0,1-.712.721H752.842v14.467a8.275,8.275,0,0,0,16.55,0v-4.621a.689.689,0,0,1,.7-.712h7.775a.707.707,0,0,1,.712.712v4.621a17.461,17.461,0,1,1-34.921,0V599.522a17.46,17.46,0,1,1,34.921,0Zm45.5-10.321v44.679a.712.712,0,0,1-.7.721H815.6a.7.7,0,0,1-.687-.721V599.522a8.3,8.3,0,0,0-16.592,0v48.692a.712.712,0,0,1-.717.721h-7.717a.711.711,0,0,1-.712-.721V583.7a.71.71,0,0,1,.712-.717h3.933c.4,0,.662.179,1.025.717.338.492.363.521,1.163,1.854a17.2,17.2,0,0,1,10.566-3.533,17.433,17.433,0,0,1,17.509,17.5ZM877.6,648.214a.711.711,0,0,1-.713.721h-7.862a.711.711,0,0,1-.713-.721V583.7a.711.711,0,0,1,.713-.717h7.862a.711.711,0,0,1,.713.717Zm46.513-34.359v3.463a.73.73,0,0,1-.725.721H898.375v14.467a8.273,8.273,0,0,0,16.546,0v-4.621a.692.692,0,0,1,.7-.712h7.763a.718.718,0,0,1,.725.712v4.621a17.465,17.465,0,1,1-34.929,0V599.522a17.465,17.465,0,1,1,34.929,0Zm20.854,34.359a.705.705,0,0,1-.708.721h-7.866a.717.717,0,0,1-.717-.721V563.172a.726.726,0,0,1,.717-.721h7.866a.713.713,0,0,1,.708.721Zm46.483-85.042v85.042a.715.715,0,0,1-.717.721H986.8c-.392,0-.679-.183-1.042-.721-.329-.488-.346-.521-1.158-1.85a17.267,17.267,0,0,1-10.679,3.659,17.493,17.493,0,0,1-17.4-17.517V599.522a17.42,17.42,0,0,1,17.4-17.5,17.774,17.774,0,0,1,8.225,2v-20.85a.811.811,0,0,1,.1-.345v-.375h9.2Z" transform="translate(-522 -510.264)" fill="#fff"/>
      <path id="Path_318" data-name="Path 318" d="M636.7,529.714a8.277,8.277,0,0,0-8.2,8.217v32.983a8.265,8.265,0,0,0,16.529,0V537.931A8.3,8.3,0,0,0,636.7,529.714Z" transform="translate(-184.772 -448.672)" fill="#fff"/>
      <path id="Path_319" data-name="Path 319" d="M620.542,529.714a8.286,8.286,0,0,0-8.212,8.217v8.6a.689.689,0,0,0,.7.708h15.133a.712.712,0,0,0,.717-.708v-8.6A8.31,8.31,0,0,0,620.542,529.714Z" transform="translate(-235.955 -448.672)" fill="#fff"/>
    </g>
  </g>
</svg>
