<svg xmlns="http://www.w3.org/2000/svg" width="600" height="71.935" viewBox="0 0 600 71.935">
  <g id="teksystems-color" transform="translate(-47.659 -45.205)">
    <rect id="Rectangle_701" data-name="Rectangle 701" width="1.041" height="61.908" transform="translate(455.735 55.229)" fill="#002345"/>
    <path id="Path_129" data-name="Path 129" d="M210.326,80.586l21.322,26.081H217.792l-19.9-24.309v24.309H185.366V54.858h12.528V78.33h.148l15.843-23.472h13.78L210.326,80.586" transform="translate(5.593 0.392)" fill="#002345"/>
    <path id="Path_130" data-name="Path 130" d="M117.318,106.655V65.64H101.067V54.852h45.145V65.64H129.96v41.015H117.318" transform="translate(2.169 0.392)" fill="#002345"/>
    <path id="Path_131" data-name="Path 131" d="M146.963,106.655v-51.8h36.889v10.4H159.375V75.825h23.331V85.3H159.375V96.255H184.24v10.4H146.963" transform="translate(4.033 0.392)" fill="#002345"/>
    <path id="Path_132" data-name="Path 132" d="M413.514,78.013a1.805,1.805,0,1,1-1.79-1.759,1.77,1.77,0,0,1,1.79,1.759m-3.158,0a1.366,1.366,0,0,0,1.368,1.4,1.345,1.345,0,0,0,1.341-1.392,1.356,1.356,0,1,0-2.71-.009Zm1.081.911h-.406V77.165a5,5,0,0,1,.672-.053.915.915,0,0,1,.6.14.44.44,0,0,1,.183.374.456.456,0,0,1-.364.419v.02c.172.055.257.194.311.429a1.548,1.548,0,0,0,.128.43h-.429a1.3,1.3,0,0,1-.138-.43c-.032-.182-.139-.267-.365-.267h-.191Zm.01-.987h.194c.223,0,.4-.075.4-.256,0-.162-.116-.268-.374-.268a.98.98,0,0,0-.224.021Z" transform="translate(14.712 1.261)" fill="#002345"/>
    <path id="Path_133" data-name="Path 133" d="M242.655,106.095c-.173,0-.345,0-.52-.007h0a15.746,15.746,0,0,1-4.746-.712c-4.648-1.362-7.429-4.659-7.429-8.815v-.41h1.891v.41c0,3.244,2.26,5.868,6.048,7.016a14.9,14.9,0,0,0,4.305.622c.151.006.288.008.425.008a12.887,12.887,0,0,0,3.772-.58c3.542-1.024,5.571-3.29,5.571-6.214,0-4.737-4.929-5.34-10.15-5.981l-.167-.02c-5.512-.689-11.216-1.4-11.216-7.27,0-3.631,2.5-6.508,6.7-7.7a15.476,15.476,0,0,1,4.534-.6,17.47,17.47,0,0,1,4.531.6c4.465,1.32,7.02,4.167,7.02,7.807v.413h-1.887V84.25c0-3.89-3.932-5.457-5.623-5.949a15.193,15.193,0,0,0-8.03-.048c-3.367.971-5.3,3.118-5.3,5.89,0,3.971,3.982,4.741,9.606,5.4,5.864.714,11.875,1.447,11.875,7.871,0,3.823-2.536,6.765-6.961,8.071a15.081,15.081,0,0,1-4.246.61" transform="translate(7.404 1.244)" fill="#002345"/>
    <path id="Path_134" data-name="Path 134" d="M261.421,115.883h-2.072l4.446-10.326L251.412,76.149h2.074l11.353,27.137,11.98-27.137h2.073l-17.471,39.734" transform="translate(8.275 1.257)" fill="#002345"/>
    <path id="Path_135" data-name="Path 135" d="M289.254,106.095c-.173,0-.348,0-.52-.007h0a15.764,15.764,0,0,1-4.745-.712c-4.646-1.362-7.429-4.659-7.429-8.815v-.41h1.892v.41c0,3.246,2.262,5.87,6.049,7.016a14.888,14.888,0,0,0,4.3.622c.152.006.288.008.425.008a12.884,12.884,0,0,0,3.77-.58c3.544-1.026,5.572-3.29,5.572-6.214,0-4.737-4.928-5.34-10.148-5.981l-.167-.02c-5.516-.689-11.217-1.4-11.217-7.27,0-3.629,2.5-6.506,6.693-7.7a15.535,15.535,0,0,1,4.54-.6,17.6,17.6,0,0,1,4.53.6c4.465,1.322,7.02,4.169,7.02,7.809v.413h-1.892V84.25c0-3.892-3.93-5.457-5.617-5.949a15.17,15.17,0,0,0-8.03-.048c-3.37.971-5.3,3.118-5.3,5.89,0,3.971,3.979,4.741,9.6,5.4,5.865.714,11.878,1.447,11.878,7.871,0,3.821-2.537,6.765-6.955,8.071a15.143,15.143,0,0,1-4.25.61" transform="translate(9.296 1.244)" fill="#002345"/>
    <path id="Path_136" data-name="Path 136" d="M311.71,106.183c-6.346,0-7.588-3.719-7.588-10.15V78.376h-5.436V76.54h5.436V70.514h1.891V76.54h7.945v1.836h-7.945V96.033c0,6.5,1.041,8.943,7.963,8.169l.413-.047.193,1.838-.408.045a23.213,23.213,0,0,1-2.463.146" transform="translate(10.195 1.028)" fill="#002345"/>
    <path id="Path_137" data-name="Path 137" d="M327.36,106.028c-6.3,0-11.2-3.243-13.443-8.9a16.456,16.456,0,0,1-1.093-6.12,16.281,16.281,0,0,1,1.095-6.071c2.236-5.653,7.137-8.9,13.441-8.9a14.176,14.176,0,0,1,10.321,4.071,15.105,15.105,0,0,1,4.16,10.9l0,.41H314.721a14.625,14.625,0,0,0,.977,5.03c1.919,4.883,6.169,7.681,11.662,7.681,5.264,0,9.295-2.487,11.35-7.007l.111-.242h2l-.236.569c-2.244,5.45-7.065,8.574-13.227,8.574M314.749,89.583h25.17c-.643-6.984-5.64-11.644-12.559-11.644-5.5,0-9.745,2.8-11.662,7.677A14.035,14.035,0,0,0,314.749,89.583Z" transform="translate(10.769 1.253)" fill="#002345"/>
    <path id="Path_138" data-name="Path 138" d="M387.088,105.813H385.2V89.355c-.051-3.753-.992-6.738-2.717-8.621a8.849,8.849,0,0,0-6.838-2.746h-.109a8.732,8.732,0,0,0-6.977,3.047c-1.661,2.01-2.469,4.821-2.469,8.587v16.191H364.2V89.622c0-3.884-.93-6.874-2.77-8.888a8.75,8.75,0,0,0-6.784-2.746h-.108a8.73,8.73,0,0,0-6.979,3.047c-1.589,1.86-2.416,4.585-2.467,8.114v16.664H343.2V76.151h1.89v5.16a8.546,8.546,0,0,1,.975-1.492,10.71,10.71,0,0,1,8.472-3.723h.108a10.627,10.627,0,0,1,8.195,3.337,12.021,12.021,0,0,1,2.27,4.191,11.348,11.348,0,0,1,2.01-3.8,10.524,10.524,0,0,1,8.416-3.723h.109a10.639,10.639,0,0,1,8.195,3.337c2.1,2.333,3.2,5.67,3.248,9.918v16.461" transform="translate(12.003 1.255)" fill="#002345"/>
    <path id="Path_139" data-name="Path 139" d="M400.367,106.095c-.175,0-.348,0-.522-.007h0a15.81,15.81,0,0,1-4.748-.712c-4.646-1.364-7.427-4.659-7.427-8.815v-.41h1.893v.41c0,3.246,2.26,5.868,6.048,7.016a14.918,14.918,0,0,0,4.307.622c.148.006.284.008.422.008a12.954,12.954,0,0,0,3.772-.578c3.54-1.028,5.571-3.293,5.571-6.216,0-4.737-4.929-5.343-10.148-5.981l-.165-.02c-5.515-.689-11.217-1.4-11.217-7.27,0-3.629,2.5-6.506,6.691-7.7a15.515,15.515,0,0,1,4.538-.6,17.582,17.582,0,0,1,4.531.6c4.467,1.324,7.024,4.169,7.024,7.809v.413h-1.893V84.25c0-3.89-3.93-5.457-5.619-5.949a15.192,15.192,0,0,0-8.03-.048c-3.37.971-5.3,3.118-5.3,5.89,0,3.971,3.98,4.741,9.6,5.4,5.864.714,11.873,1.447,11.873,7.871,0,3.821-2.534,6.765-6.955,8.071a15.112,15.112,0,0,1-4.248.61" transform="translate(13.809 1.244)" fill="#002345"/>
    <path id="Path_140" data-name="Path 140" d="M61.9,58.258a35.935,35.935,0,0,0-8.24.634c-.045.012-.107.027-.191.045a5.532,5.532,0,0,0-4.626,4.506c-.66,3.143,3.026,6.815,3.065,6.851.206.175,22.254,18.965,24.279,20.729,2.135,1.86,5.078,2.8,6.745,2.09a6.805,6.805,0,0,0,1.612-.962,6.613,6.613,0,0,1-1.915.291,5.911,5.911,0,0,1-3.744-1.32c-4.14-3.262-8.946-13.01-9.72-14.792l-.317-.715c-1.3-2.943-3.087-6.973-2.039-12.21a21.555,21.555,0,0,1,1.63-4.986c-1.073-.051-3.719-.162-6.538-.162" transform="translate(0.045 0.53)" fill="#0080c8"/>
    <path id="Path_141" data-name="Path 141" d="M62.65,57.364c2.7,0,5.188.14,6.461.278l.783.084c3.2.329,7.583.78,11.607,4.284a21.667,21.667,0,0,1,3.52,3.89c1.213-1.9,6.1-9.717,6.922-13.065.01-.045.03-.109.057-.193A5.533,5.533,0,0,0,90.382,46.4a5.891,5.891,0,0,0-4-1.191,14.558,14.558,0,0,0-3.469.454c-.252.092-27.507,9.91-30.041,10.794-2.384.829-4.922,2.753-5.162,4.823a6.644,6.644,0,0,0,.039,1.871,6.067,6.067,0,0,1,3.7-4.4C54.272,57.6,59.1,57.364,62.65,57.364" fill="#f77e0b"/>
    <path id="Path_142" data-name="Path 142" d="M69.635,76.784c1.034,2.008,5.312,10.173,7.792,12.566.033.035.078.082.134.145A5.728,5.728,0,0,0,81.83,91.58a6.284,6.284,0,0,0,1.945-.329c3.052-.994,4.39-6.028,4.4-6.077.047-.266,5.313-28.753,5.832-31.389.484-2.476.1-5.636-1.561-6.887a6.686,6.686,0,0,0-1.638-.912A6.063,6.063,0,0,1,92.748,51.4c-.761,5.219-6.8,14.249-7.959,15.812l-.464.634c-1.9,2.6-4.5,6.155-9.554,7.864a21.481,21.481,0,0,1-5.136,1.075" transform="translate(0.893 0.032)" fill="#002345"/>
    <path id="Path_143" data-name="Path 143" d="M479.605,75.9h-9.2v29.8h9.581c9.383,0,15.447-5.8,15.447-14.773,0-9.127-6.211-15.024-15.827-15.024m-7.3,1.822h7.254c8.508,0,14,5.182,14,13.2,0,7.868-5.348,12.951-13.624,12.951h-7.635Z" transform="translate(17.169 1.247)" fill="#002345"/>
    <rect id="Rectangle_702" data-name="Rectangle 702" width="1.906" height="29.797" transform="translate(519.132 77.146)" fill="#002345"/>
    <path id="Path_144" data-name="Path 144" d="M526.646,92.637h9.495v5.452c-1.225,2.454-5.562,6.314-12.065,6.314-7.873,0-13.372-5.638-13.372-13.71,0-8.1,5.425-13.542,13.5-13.542,7.834,0,10.8,5.078,11.528,6.634l.048.1,1.809-.538-.058-.133c-1.672-3.813-6.062-7.886-13.368-7.886-9.021,0-15.321,6.352-15.321,15.447a15.431,15.431,0,0,0,27.38,9.783c0,.021,0,.043,0,.067-.011.569-.035,1.754-.035,4.962v.13h1.778V90.859H526.646v1.778" transform="translate(18.73 1.224)" fill="#002345"/>
    <rect id="Rectangle_703" data-name="Rectangle 703" width="1.905" height="29.797" transform="translate(564.236 77.146)" fill="#002345"/>
    <path id="Path_145" data-name="Path 145" d="M575.363,75.9H551.981v1.822H562.74V105.7H564.6V77.721h10.759V75.9" transform="translate(20.482 1.247)" fill="#002345"/>
    <path id="Path_146" data-name="Path 146" d="M588.7,75.9h-1.816l-13.238,29.8h2.015l4.135-9.325h15.991l4.1,9.247.034.078h2.013l-13.2-29.72L588.7,75.9M595,94.634h-14.45l3.8-8.469c.39-.9.887-2.052,1.383-3.206.838-1.942,1.77-4.107,2.064-4.768.146.334.45,1.044.787,1.835.755,1.765,1.9,4.431,2.661,6.141Z" transform="translate(21.362 1.247)" fill="#002345"/>
    <path id="Path_147" data-name="Path 147" d="M608.3,103.875V75.9h-1.905v29.8h18.574v-1.821H608.3" transform="translate(22.692 1.247)" fill="#002345"/>
  </g>
</svg>
